<svg id="Amazon_logo" xmlns="http://www.w3.org/2000/svg" width="149.449" height="45.037" viewBox="0 0 149.449 45.037">
  <path id="path8" d="M156.789,122.531c-8.685,6.4-21.273,9.817-32.111,9.817A58.106,58.106,0,0,1,85.45,117.378c-.813-.735-.085-1.737.891-1.164a78.952,78.952,0,0,0,39.247,10.409,78.044,78.044,0,0,0,29.938-6.122c1.47-.625,2.7.963,1.262,2.03" transform="translate(-64.074 -87.311)" fill="#f90"/>
  <path id="path10" d="M355.66,113.667c-1.106-1.418-7.338-.67-10.135-.338-.852.1-.982-.638-.215-1.171,4.964-3.493,13.108-2.485,14.058-1.314s-.247,9.342-4.912,13.238c-.716.6-1.4.28-1.08-.514,1.047-2.615,3.4-8.477,2.283-9.9" transform="translate(-259.334 -82.577)" fill="#f90"/>
  <path id="path12" d="M345.876,7.175v-3.4a.838.838,0,0,1,.859-.859h15.2a.846.846,0,0,1,.878.859V6.687a4.784,4.784,0,0,1-1.145,2.134l-7.878,11.248a16.786,16.786,0,0,1,8.672,1.861,1.547,1.547,0,0,1,.807,1.321v3.624c0,.494-.546,1.073-1.119.774a17.513,17.513,0,0,0-16.062.026c-.527.286-1.08-.286-1.08-.781V23.451a4.107,4.107,0,0,1,.559-2.335L354.7,8.027h-7.943a.841.841,0,0,1-.878-.852" transform="translate(-259.491 -2.257)" fill="#221f1f"/>
  <path id="path14" d="M108.481,27.042h-4.625a.874.874,0,0,1-.826-.787V2.517a.868.868,0,0,1,.891-.852h4.313a.871.871,0,0,1,.839.794v3.1h.085a6.105,6.105,0,0,1,6.089-4.4c2.895,0,4.7,1.4,6,4.4a6.831,6.831,0,0,1,11.742-1.8c1.464,2,1.164,4.9,1.164,7.442l-.006,14.982a.874.874,0,0,1-.891.859h-4.619a.879.879,0,0,1-.833-.859V13.6a29.716,29.716,0,0,0-.13-4.45,2.409,2.409,0,0,0-2.719-2.043,3.073,3.073,0,0,0-2.765,1.945,14.37,14.37,0,0,0-.429,4.547V26.183a.874.874,0,0,1-.891.859h-4.619a.874.874,0,0,1-.833-.859L115.415,13.6c0-2.648.436-6.544-2.849-6.544-3.324,0-3.194,3.8-3.194,6.544V26.183a.874.874,0,0,1-.891.859" transform="translate(-77.554 -0.936)" fill="#221f1f"/>
  <path id="path16" d="M437.976,1.164c6.863,0,10.578,5.894,10.578,13.388,0,7.241-4.1,12.985-10.578,12.985-6.74,0-10.409-5.894-10.409-13.238,0-7.39,3.715-13.134,10.409-13.134m.039,4.847c-3.409,0-3.624,4.645-3.624,7.54s-.046,9.095,3.585,9.095c3.584,0,3.754-5,3.754-8.041a21.947,21.947,0,0,0-.69-6.3,2.893,2.893,0,0,0-3.025-2.3" transform="translate(-321.562 -0.936)" fill="#221f1f"/>
  <path id="path18" d="M531.509,27.042H526.9a.879.879,0,0,1-.833-.859l-.007-23.745a.875.875,0,0,1,.891-.774h4.287a.885.885,0,0,1,.826.664v3.63h.085c1.295-3.246,3.11-4.794,6.3-4.794a6.069,6.069,0,0,1,5.4,2.8c1.21,1.9,1.21,5.094,1.21,7.39V26.294a.889.889,0,0,1-.891.748h-4.638a.876.876,0,0,1-.82-.748V13.4c0-2.6.3-6.395-2.895-6.395a3.023,3.023,0,0,0-2.674,1.9,10.507,10.507,0,0,0-.735,4.5V26.183a.889.889,0,0,1-.9.859" transform="translate(-395.618 -0.936)" fill="#221f1f"/>
  <path id="use28" d="M13.993,15.013v-1c-3.344,0-6.876.716-6.876,4.658,0,2,1.034,3.35,2.81,3.35a3.75,3.75,0,0,0,3.2-2.1c.911-1.6.865-3.1.865-4.905m4.664,11.274a.966.966,0,0,1-1.093.111,11.388,11.388,0,0,1-2.654-3.084c-2.537,2.589-4.333,3.363-7.624,3.363-3.89,0-6.922-2.4-6.922-7.208A7.859,7.859,0,0,1,5.3,11.91c2.511-1.106,6.017-1.3,8.7-1.607V9.7a5.951,5.951,0,0,0-.559-3.35,3.1,3.1,0,0,0-2.6-1.2A3.526,3.526,0,0,0,7.117,7.929a.968.968,0,0,1-.8.846L1.828,8.293a.819.819,0,0,1-.69-.969C2.172,1.885,7.084.246,11.482.246c2.251,0,5.191.6,6.967,2.3,2.251,2.1,2.036,4.905,2.036,7.956v7.208c0,2.166.9,3.116,1.743,4.287a.869.869,0,0,1-.013,1.23c-.943.787-2.622,2.251-3.545,3.071l-.013-.013" transform="translate(60.273 -0.246)" fill="#221f1f"/>
  <path id="path30" d="M13.993,15.013v-1c-3.344,0-6.876.716-6.876,4.658,0,2,1.034,3.35,2.81,3.35a3.75,3.75,0,0,0,3.2-2.1c.911-1.6.865-3.1.865-4.905m4.664,11.274a.966.966,0,0,1-1.093.111,11.388,11.388,0,0,1-2.654-3.084c-2.537,2.589-4.333,3.363-7.624,3.363-3.89,0-6.922-2.4-6.922-7.208A7.859,7.859,0,0,1,5.3,11.91c2.511-1.106,6.017-1.3,8.7-1.607V9.7a5.951,5.951,0,0,0-.559-3.35,3.1,3.1,0,0,0-2.6-1.2A3.526,3.526,0,0,0,7.117,7.929a.968.968,0,0,1-.8.846L1.828,8.293a.819.819,0,0,1-.69-.969C2.172,1.885,7.084.246,11.482.246c2.251,0,5.191.6,6.967,2.3,2.251,2.1,2.036,4.905,2.036,7.956v7.208c0,2.166.9,3.116,1.743,4.287a.869.869,0,0,1-.013,1.23c-.943.787-2.622,2.251-3.545,3.071l-.013-.013" transform="translate(-0.364 -0.246)" fill="#221f1f"/>
</svg>
