<?xml version="1.0" encoding="UTF-8"?>
<svg id="Capa_2" data-name="Capa 2" xmlns="http://www.w3.org/2000/svg" viewBox="0 0 60 40">
  <defs>
    <style>
      .cls-1 {
        fill: #233551;
      }

      .cls-2 {
        fill: #fff;
      }
    </style>
  </defs>
  <g id="Capa_1-2" data-name="Capa 1">
    <g>
      <rect class="cls-1" width="60" height="40" rx="5" ry="5"/>
      <path class="cls-2" d="M8.17,18.86l3.03-6.73h3l.41.78v-.78h3.52l.78,1.74.74-1.74h11.17c.59,0,1.02.14,1.29.41v-.41h3.07v.41c.47-.27,1.11-.41,1.92-.41h4.44l.41.78v-.78h3.29l.44.78v-.78h3.18v6.73h-3.22l-.59-1.04v1.04h-4.07l-.44-1.07h-.96l-.44,1.07c-.12,0-.44,0-.94.02-.51.01-.87.02-1.09.02-.32-.02-.64-.07-.96-.15-.35-.05-.67-.15-.96-.3v.41h-4.96v-1.52c0-.17-.06-.26-.19-.26h-.19v1.78h-9.62v-.85l-.33.85h-2.03l-.33-.81v.81h-3.88l-.44-1.07h-.96l-.44,1.07h-3.63ZM22.23,13.09h-1.89l-1.37,3.26-1.52-3.26h-1.89v4.55l-1.96-4.55h-1.7l-2.07,4.81h1.26l.44-1.07h2.4l.45,1.07h2.33v-3.77l1.67,3.77h1.04l1.67-3.77v3.77h1.15v-4.81ZM11.94,15.83l.78-1.92.81,1.92h-1.59ZM51.68,20.86v1.52c0,.1-.04.19-.11.28-.07.09-.17.13-.29.13.37.35.55.7.55,1.07v.85c0,.4-.02.72-.06.98-.04.26-.12.46-.24.61-.12.15-.22.25-.3.3-.07.05-.22.14-.44.26-.42.2-.99.3-1.7.3h-3v-.44c-.37.3-.89.44-1.55.44h-9.4v-1.55c0-.1-.01-.16-.04-.19-.02-.02-.09-.04-.18-.04h-.15v1.78h-3.07v-1.81c-.37.15-.91.22-1.63.22h-.37v1.59h-3.74l-.92-1.07-.96,1.07h-6.11v-6.73h6.18l.89,1.04.96-1.04h4.18c.79,0,1.33.14,1.63.41v-.41h3.7c.67,0,1.18.14,1.55.41v-.41h5.62v.41c.27-.27.73-.41,1.37-.41h3.14v.41c.37-.27.85-.41,1.44-.41h2.59c.07,0,.15.02.22.06.07.04.13.09.17.17s.05.15.05.22ZM30.19,21.38h-3.66l-1.48,1.59-1.41-1.59h-4.62v4.81h4.55l1.48-1.59,1.41,1.59h2.26v-1.59h1.67c.17-.02.36-.06.55-.11.15-.02.3-.07.44-.15.17-.07.31-.17.41-.3.12-.15.21-.3.26-.44.07-.2.11-.39.11-.59v-.04c0-1.06-.65-1.59-1.96-1.59ZM22.97,25.19h-2.81v-.96h2.52v-.96h-2.52v-.89h2.89l1.26,1.41-1.33,1.41ZM26.97,16.9h-2.7v-.96h2.63v-.96h-2.63v-.89h2.7v-1h-3.85v4.81h3.85v-1ZM25.78,23.78l1.78-1.89v3.85l-1.78-1.96ZM32.37,14.38c0-.52-.17-.86-.5-1.04-.33-.17-.8-.26-1.39-.26h-2.74v4.81h1.15v-1.74h1.29c.17,0,.33.02.48.07.12.02.22.07.3.15.07.05.14.14.18.26.03.12.04.23.04.33v.93h1.15v-.96c0-.34-.05-.62-.15-.81-.1-.2-.31-.35-.63-.44.27-.12.47-.3.61-.54.14-.23.2-.49.2-.76ZM30.92,22.97c0,.42-.25.63-.74.63h-1.48v-1.22h1.48c.49,0,.74.2.74.59ZM31.11,14.61c0,.37-.26.56-.78.56h-1.44v-1.07h1.48c.49,0,.74.17.74.52ZM37.33,22.67c-.03-.49-.2-.83-.54-1.02-.33-.19-.78-.28-1.35-.28h-2.74v4.81h1.15v-1.74h1.22c.39,0,.67.06.81.19.15.12.22.38.22.78v.78h1.15v-.96c0-.35-.06-.62-.17-.81-.11-.2-.31-.35-.61-.44.27-.1.48-.27.63-.52.15-.25.22-.51.22-.78ZM34.22,13.09h-1.18v4.81h1.18v-4.81ZM36.03,22.89c0,.37-.25.56-.74.56h-1.44v-1.07h1.44c.49,0,.74.17.74.52ZM47.83,13.09h-1.15v3.33l-2.04-3.33h-1.78v4.55l-1.92-4.55h-1.74l-1.63,3.81h-.52c-.42,0-.71-.12-.87-.37s-.24-.59-.24-1.04v-.04c0-.2.01-.38.04-.55.02-.15.1-.28.22-.41.1-.1.18-.18.26-.24s.2-.1.39-.11c.19-.01.32-.02.41-.04.09-.01.25-.01.5,0,.25.01.41.02.48.02v-1.04h-1.11c-1.58,0-2.37.81-2.37,2.44s.76,2.37,2.29,2.37h1.33l.45-1.07h2.4l.44,1.07h2.37v-3.63l2.15,3.63h1.63v-4.81ZM41.8,25.19h-2.7v-.96h2.63v-.96h-2.63v-.89h2.7v-1h-3.85v4.81h3.85v-1ZM39.25,15.83l.81-1.92.78,1.92h-1.59ZM46.54,24.67c0-.42-.1-.74-.3-.96-.22-.22-.48-.36-.78-.41-.25-.02-.49-.04-.74-.04h-.22c-.22,0-.44-.02-.65-.07-.21-.05-.31-.17-.31-.37,0-.3.21-.44.63-.44h2.15v-1h-2.33c-.47,0-.86.12-1.17.37-.31.25-.46.6-.46,1.07,0,.42.1.75.3.98.2.23.44.36.74.39.29.05.59.07.89.07h.07c.22,0,.44.02.67.07.2.07.3.2.3.37,0,.3-.2.44-.59.44h-2.26v1.04h2.26c1.21,0,1.81-.5,1.81-1.52ZM46.98,26.19h2.26c1.21,0,1.81-.5,1.81-1.52,0-.42-.1-.74-.3-.96-.22-.22-.48-.36-.78-.41-.25-.02-.49-.04-.74-.04h-.22c-.22,0-.43-.02-.63-.07l.19.04c-.35-.02-.52-.16-.52-.41,0-.3.21-.44.63-.44h2.11v-1h-2.29c-.47,0-.86.12-1.18.37-.32.25-.48.6-.48,1.07,0,.35.07.63.22.85.15.22.33.37.55.44.22.07.46.12.7.15.2.02.41.04.63.04h.07c.22-.02.41,0,.56.07.15.07.22.19.22.33,0,.3-.2.44-.59.44h-2.22v1.04Z"/>
    </g>
  </g>
</svg>