<svg id="Grupo_154" data-name="Grupo 154" xmlns="http://www.w3.org/2000/svg" width="147.403" height="51.23" viewBox="0 0 147.403 51.23">
  <path id="Trazado_3" data-name="Trazado 3" d="M74.6,350.906H77.4a.33.33,0,1,0,0-.66H74.6a.33.33,0,0,0,0,.66ZM76,375.365a1.453,1.453,0,1,0,1.452,1.455A1.455,1.455,0,0,0,76,375.365Zm-7.12-1.245H83.123V353.055H68.879Zm45.669-6.918a2.835,2.835,0,0,0-1.836.67,3.142,3.142,0,0,0-1.078,1.768,3.667,3.667,0,0,0-.125.838v2.052a3.278,3.278,0,0,0,.822,2.272,2.747,2.747,0,0,0,2.141.922,2.8,2.8,0,0,0,2.411-1.192,5.247,5.247,0,0,0,.86-3.147,5.063,5.063,0,0,0-.809-2.963A2.824,2.824,0,0,0,114.548,367.2Zm49.952-.17a2.739,2.739,0,0,0-2.505,1.465,5.531,5.531,0,0,0-.739,2.954,5.443,5.443,0,0,0,.739,2.908,2.753,2.753,0,0,0,2.485,1.464,2.721,2.721,0,0,0,2.452-1.495,5.418,5.418,0,0,0,.766-2.926,5.519,5.519,0,0,0-.732-2.906A2.724,2.724,0,0,0,164.5,367.033Zm-36.41.17a2.831,2.831,0,0,0-1.837.67,3.158,3.158,0,0,0-1.08,1.768,3.6,3.6,0,0,0-.124.838v2.052a3.281,3.281,0,0,0,.822,2.272,2.745,2.745,0,0,0,2.139.922,2.8,2.8,0,0,0,2.413-1.192,5.236,5.236,0,0,0,.865-3.147,5.081,5.081,0,0,0-.812-2.963A2.827,2.827,0,0,0,128.09,367.2Zm-28.3-4.408h-.048c-.172.727-.439,1.8-.814,3.221l-1.42,4.463H102.1l-1.439-4.463Q100.426,365.327,99.793,362.794Zm85.476,4.1a2.625,2.625,0,0,0-2.18,1.121,4.063,4.063,0,0,0-.812,2.125h5.7a3.746,3.746,0,0,0-.53-2.1A2.407,2.407,0,0,0,185.269,366.9Zm-73.4-12.161a1.118,1.118,0,0,0,.038-.353v-.872c-1.134-.013-2.214.221-2.214,1.185a.842.842,0,0,0,.912.914A1.318,1.318,0,0,0,111.87,354.738Zm-14.943-3.989c-.17-.534-.313-1.134-.444-1.642h-.027c-.129.508-.273,1.12-.417,1.642l-.677,2.164h2.254Zm99.429-12.789H61.411a6.236,6.236,0,0,0-6.229,6.229v38.78a6.231,6.231,0,0,0,6.229,6.22H196.355a6.232,6.232,0,0,0,6.23-6.22v-38.78A6.235,6.235,0,0,0,196.356,337.96ZM187.8,350.124c2.06,0,2.738,1.693,2.738,3.089a3.875,3.875,0,0,1-.053.679h-4.249a1.717,1.717,0,0,0,1.955,1.641,5.1,5.1,0,0,0,1.759-.286l.234,1.1a5.7,5.7,0,0,1-2.215.4,3,3,0,0,1-3.272-3.205A3.144,3.144,0,0,1,187.8,350.124Zm-25.438.143.078.952h.04a2.327,2.327,0,0,1,2.032-1.095c1.109,0,2.255.717,2.255,2.723v3.767h-1.6V353.03c0-.912-.339-1.6-1.212-1.6a1.346,1.346,0,0,0-1.252.939,1.471,1.471,0,0,0-.078.508v3.74h-1.6v-4.456c0-.731-.026-1.342-.053-1.891Zm-16.835-.143c2.059,0,2.738,1.693,2.738,3.089a3.872,3.872,0,0,1-.053.679H143.96a1.717,1.717,0,0,0,1.955,1.641,5.1,5.1,0,0,0,1.759-.286l.234,1.1a5.7,5.7,0,0,1-2.216.4,3,3,0,0,1-3.271-3.205A3.143,3.143,0,0,1,145.524,350.124Zm-6.57-2.763h1.6v9.253h-1.6Zm-12.714,3.9a3.375,3.375,0,0,0-1.707.47l-.313-1.043a4.57,4.57,0,0,1,2.293-.56,2.378,2.378,0,0,1,2.621,2.684v2.281a8.544,8.544,0,0,0,.1,1.524h-1.446l-.117-.7h-.039a2.323,2.323,0,0,1-1.878.848,1.885,1.885,0,0,1-1.994-1.891c0-1.59,1.42-2.412,3.767-2.4v-.1C127.53,351.949,127.36,351.257,126.239,351.257Zm-9.479-3.636a.867.867,0,1,1-.9.873A.857.857,0,0,1,116.76,347.621Zm.794,2.646v6.347h-1.6v-6.347ZM95.505,347.83h2.047l2.854,8.784H98.673l-.794-2.489H95.1l-.756,2.489H92.689ZM84.83,376.96a2.809,2.809,0,0,1-2.809,2.8H69.983a2.808,2.808,0,0,1-2.811-2.8V350.209a2.812,2.812,0,0,1,2.811-2.806H82.021a2.812,2.812,0,0,1,2.809,2.806Zm19.35.642-1.6-5.017H97.03L95.507,377.6H92.669l5.5-17.09h3.4l5.53,17.09Zm.623-20.989h-1.578l-2.359-6.347H102.6l1.029,3.22c.183.56.313,1.068.431,1.59h.04c.117-.522.26-1.018.429-1.59l1.017-3.22h1.682Zm3.3-1.746c0-1.59,1.42-2.412,3.767-2.4v-.1c0-.417-.17-1.109-1.291-1.109a3.376,3.376,0,0,0-1.707.47l-.313-1.043a4.572,4.572,0,0,1,2.295-.56,2.378,2.378,0,0,1,2.62,2.684v2.281a8.484,8.484,0,0,0,.1,1.524H112.13l-.117-.7h-.039a2.323,2.323,0,0,1-1.878.848A1.884,1.884,0,0,1,108.1,354.868Zm10.722,21.394a5.018,5.018,0,0,1-3.8,1.618,3.792,3.792,0,0,1-3.518-1.752V382.6h-2.737V369.328q0-1.977-.105-4.05h2.409l.151,1.952h.048a4.884,4.884,0,0,1,7.8-.478,6.805,6.805,0,0,1,1.457,4.538A6.97,6.97,0,0,1,118.825,376.262Zm2.849-19.649h-1.6v-9.253h1.6Zm10.69,19.649a5.019,5.019,0,0,1-3.8,1.618,3.791,3.791,0,0,1-3.515-1.752V382.6h-2.739V369.328q0-1.977-.1-4.05h2.4l.158,1.952h.047a4.879,4.879,0,0,1,7.8-.478,6.775,6.775,0,0,1,1.459,4.538A6.969,6.969,0,0,1,132.364,376.262Zm1.881-19.5a2.184,2.184,0,0,1-2.007-1.1h-.026l-.078.951h-1.369c.026-.43.052-1.133.052-1.786v-7.467h1.6v3.779h.026a2.3,2.3,0,0,1,2.034-1.016c1.551,0,2.659,1.29,2.646,3.219C137.125,355.624,135.679,356.759,134.245,356.759Zm13.784,19.6a6.742,6.742,0,0,1-4.657,1.495,8.163,8.163,0,0,1-4.429-1.063l.636-2.281a7.653,7.653,0,0,0,3.951,1.064,3.752,3.752,0,0,0,2.411-.7,2.278,2.278,0,0,0,.86-1.87,2.393,2.393,0,0,0-.707-1.743,6.7,6.7,0,0,0-2.357-1.318q-4.484-1.669-4.487-4.891a4.311,4.311,0,0,1,1.58-3.451,6.281,6.281,0,0,1,4.2-1.342,8.355,8.355,0,0,1,3.881.81l-.691,2.232a6.781,6.781,0,0,0-3.279-.787,3.407,3.407,0,0,0-2.267.707,2.055,2.055,0,0,0-.684,1.552,2.117,2.117,0,0,0,.785,1.677,8.964,8.964,0,0,0,2.483,1.313,8.34,8.34,0,0,1,3.25,2.082,4.352,4.352,0,0,1,1.039,2.963A4.564,4.564,0,0,1,148.029,376.358Zm9.654-9.028H154.66v5.991c0,1.52.537,2.274,1.6,2.274a5.005,5.005,0,0,0,1.216-.119l.078,2.075a6.2,6.2,0,0,1-2.13.3,3.264,3.264,0,0,1-2.534-.988,4.812,4.812,0,0,1-.917-3.321V367.33h-1.8v-2.051h1.8v-2.255l2.685-.812v3.067h3.022Zm-1.544-10.571a3.07,3.07,0,0,1-3.181-3.272,3.134,3.134,0,0,1,3.285-3.362,3.046,3.046,0,0,1,3.155,3.259A3.145,3.145,0,0,1,156.139,356.759Zm12.779,19.25a5.81,5.81,0,0,1-4.513,1.872,5.519,5.519,0,0,1-4.33-1.8,6.56,6.56,0,0,1-1.606-4.539,6.7,6.7,0,0,1,1.659-4.69,5.733,5.733,0,0,1,4.473-1.822,5.612,5.612,0,0,1,4.367,1.8,6.49,6.49,0,0,1,1.57,4.51A6.763,6.763,0,0,1,168.918,376.009Zm2.83-25.742h.9V349.08l1.578-.443v1.63h1.524v1.2h-1.524v2.8c0,.782.208,1.173.82,1.173a2.114,2.114,0,0,0,.626-.065l.026,1.212a3.529,3.529,0,0,1-1.16.17,1.84,1.84,0,0,1-1.382-.522,2.5,2.5,0,0,1-.508-1.786v-2.985h-.9v-1.2Zm7.029,17.419a4.828,4.828,0,0,0-.862-.07,2.593,2.593,0,0,0-2.231,1.088,4.07,4.07,0,0,0-.685,2.432V377.6H172.26v-8.448q0-2.119-.073-3.877h2.383l.1,2.359h.075a4.141,4.141,0,0,1,1.369-1.949,3.284,3.284,0,0,1,1.98-.657,4.274,4.274,0,0,1,.68.046v2.61Zm.415-14.878v3.806h-1.6v-9.253h1.6v3.766h.027a2.114,2.114,0,0,1,.795-.717,2.254,2.254,0,0,1,1.108-.287c1.082,0,2.217.717,2.217,2.75v3.74h-1.6v-3.571c0-.913-.339-1.617-1.225-1.617a1.339,1.339,0,0,0-1.251.9A1.448,1.448,0,0,0,179.192,352.808Zm11.3,19.3h-8.217a3.559,3.559,0,0,0,1.193,2.783,4.05,4.05,0,0,0,2.687.864,8.955,8.955,0,0,0,3.322-.588l.431,1.9a10.23,10.23,0,0,1-4.137.759,5.975,5.975,0,0,1-4.5-1.682,6.232,6.232,0,0,1-1.639-4.524,7.1,7.1,0,0,1,1.522-4.645A5.267,5.267,0,0,1,185.472,365a4.581,4.581,0,0,1,4.032,1.975,6.685,6.685,0,0,1,1.09,3.885A6.883,6.883,0,0,1,190.495,372.1Zm-56.6-20.73a1.492,1.492,0,0,0-1.421,1.173,1.873,1.873,0,0,0-.053.417v1.03a1.778,1.778,0,0,0,.04.379,1.465,1.465,0,0,0,1.42,1.121c1,0,1.617-.8,1.617-2.085C135.5,352.288,134.961,351.374,133.893,351.374Zm11.54-.155a1.568,1.568,0,0,0-1.472,1.551h2.789A1.365,1.365,0,0,0,145.433,351.219Zm10.771.065c-1.134,0-1.59,1.107-1.59,2.163,0,1.226.613,2.152,1.578,2.152.912,0,1.551-.887,1.551-2.177C157.742,352.431,157.3,351.284,156.2,351.284ZM125.353,354.7a.842.842,0,0,0,.912.914,1.316,1.316,0,0,0,1.264-.874,1.086,1.086,0,0,0,.039-.353v-.872C126.435,353.5,125.353,353.734,125.353,354.7Zm62.354-3.479a1.569,1.569,0,0,0-1.473,1.551h2.789A1.364,1.364,0,0,0,187.707,351.219Z" transform="translate(-55.182 -337.96)" fill="#0f172a"/>
</svg>
