<svg xmlns="http://www.w3.org/2000/svg" width="101.078" height="59.078" viewBox="0 0 101.078 59.078">
  <g id="Best_Buy_logo_2018" transform="translate(0)">
    <path id="path2998" d="M137.5,29.631v25.5h13.354c5.256,0,10.113-1.845,10.113-7.263,0-3.663-2.639-5.335-5.541-6.211a5.484,5.484,0,0,0,3.774-5.323c0-4-3.967-6.707-9.308-6.707Zm8.181,5.94h3.008a2.1,2.1,0,0,1,2.158,1.932,2.127,2.127,0,0,1-2.158,1.872h-3.008Zm0,9.1h3.97a2.459,2.459,0,0,1,2.549,2.256,2.505,2.505,0,0,1-2.79,2.338h-3.729V44.669Z" transform="translate(-137.5 -28.9)" fill="#1c252c"/>
    <path id="path3005" d="M202.961,309.475v25.5h13.354c5.256,0,10.113-1.845,10.113-7.263,0-3.663-2.639-5.335-5.541-6.211a5.484,5.484,0,0,0,3.775-5.323c0-4-3.967-6.707-9.308-6.707Zm8.181,5.94h3.008a2.1,2.1,0,0,1,2.158,1.932,2.127,2.127,0,0,1-2.158,1.872h-3.008Zm0,9.1h3.97a2.459,2.459,0,0,1,2.549,2.256,2.505,2.505,0,0,1-2.789,2.338h-3.729Z" transform="translate(-196.344 -280.457)" fill="#1c252c"/>
    <path id="path3007" d="M376.015,55.1V29.6h20.572V35.76H384.171V39.1h10.081v5.775H384.171v4.09h12.415V55.1Z" transform="translate(-351.906 -28.872)" fill="#1c252c"/>
    <path id="path3009" d="M594.205,49.353c5.791,0,10.422-3.3,10.422-8.655,0-8.638-11.238-7.309-11.238-10,0-1.039,1.093-1.59,2.213-1.59a5.416,5.416,0,0,1,3.326,1.272l4.835-4.6a12.979,12.979,0,0,0-9.1-3.387c-6.179,0-10.221,3.667-10.221,8.091,0,8.748,11.076,7.478,11.076,10.223,0,.962-.926,1.93-2.6,1.93a7.368,7.368,0,0,1-4.591-2.127l-4.863,4.636A14.4,14.4,0,0,0,594.205,49.353Z" transform="translate(-538.381 -22.39)" fill="#1c252c"/>
    <path id="path3011" d="M795.272,55.1V35.736h-6.737V29.6H810.19v6.135h-6.737V55.1Z" transform="translate(-722.73 -28.872)" fill="#1c252c"/>
    <path id="path3013" d="M437.9,309.3h8.156v15.278a3.229,3.229,0,0,0,3.154,2.981,3.115,3.115,0,0,0,3.054-3.063V309.3H460.4v15.093c0,5.989-4.972,10.766-11.4,10.766A11.024,11.024,0,0,1,437.9,324.063Z" transform="translate(-407.54 -280.296)" fill="#1c252c"/>
    <path id="path3015" d="M674.713,334.8v-9.113L665.126,309.3h8.252l5.425,8.782,5.443-8.782h8.271l-9.624,16.484v9.02Z" transform="translate(-611.795 -280.296)" fill="#1c252c"/>
    <path id="path3017" d="M893.324,447.389l-4.812,4.812v6.5l4.812,4.812h20.355v-16.12Z" transform="translate(-812.601 -404.431)" fill="#ffed31"/>
    <path id="path3024" d="M1236.691,1525.795a1.083,1.083,0,1,1-1.083-1.083A1.083,1.083,0,0,1,1236.691,1525.795Z" transform="translate(-1156.759 -1474.78)" fill="#1c252c"/>
  </g>
</svg>
