<?xml version="1.0" encoding="UTF-8"?>
<svg id="Capa_2" data-name="Capa 2" xmlns="http://www.w3.org/2000/svg" viewBox="0 0 36 36">
  <defs>
    <style>
      .cls-1 {
        fill: #f90;
      }

      .cls-1, .cls-2, .cls-3 {
        stroke-width: 0px;
      }

      .cls-2 {
        fill: none;
      }

      .cls-3 {
        fill: #000;
      }
    </style>
  </defs>
  <g id="Capa_1-2" data-name="Capa 1">
    <g>
      <rect class="cls-2" width="36" height="36"/>
      <path class="cls-1" d="M27.1,32.9c-2.3,1.4-5.4,2.1-9.4,2.3-2.7-.1-5.1-.6-7.3-1.5s-4-2-5.5-3.2-2.6-2.2-3.2-3c-.3-.3-.3-.5-.2-.6.2-.1.3-.1.5,0,.1.1.2.1.3.2,1.9,1.2,4.1,2.4,6.8,3.5,2.6,1.1,5.7,1.7,9.3,1.8,3.5,0,7.6-1,12.3-3.1.7-.2.8.1.4.9-.4.4-1.7,1.4-4,2.7Z"/>
      <path class="cls-3" d="M15.6,11.5c-2,.5-3.9,1.3-5.4,2.6-1.6,1.3-2.5,3.2-2.5,5.8.1,2.8,1,4.8,2.8,5.8,1.8,1.1,3.9,1.4,6.1.9,2.1-.5,3.9-1.6,5.1-3.5.3.5.9,1.1,1.7,1.8l1.8,1.8,4.3-4.3c-.1,0-.5-.5-1.2-1.2-.7-.8-1.1-1.7-1.2-2.8V7.1c0-1.1-.5-2.4-1.8-3.8-1.3-1.5-3.6-2.3-6.8-2.5-3.4.1-6,1-7.8,2.6-1.7,1.6-2.6,3.4-2.6,5.4l5.7.5c.7-1.8,1.6-2.9,2.5-3.3,1-.4,1.5-.6,1.6-.5,1.3,0,2.1.4,2.4,1.2.3.8.4,1.8.3,3.1v.9c-1.3.2-3,.4-5,.8ZM18.9,21.5c-1,.6-2,.7-3.1.2-1-.5-1.6-1.4-1.7-2.8.1-1.8.8-3,2.2-3.5,1.4-.6,2.8-.9,4.2-.9v3.1c.1,1.9-.5,3.3-1.6,3.9Z"/>
      <path class="cls-1" d="M32.5,32.6c-.5.4-.7.3-.5-.3.2-.4.5-1,.8-2,.4-1,.4-1.8.2-2.2-.3-.3-.8-.4-1.5-.4-.7.1-1.4.1-1.9.2h-.2c-.2.1-.4.1-.5.1-.4.1-.6,0-.6-.1-.1-.3.3-.5.9-.8.7-.3,1.3-.5,2-.6h2.1c.7.1,1.2.2,1.5.5.1.3.1.7,0,1.4-.1.6-.3,1.3-.5,1.9-.8,1.1-1.3,1.9-1.8,2.3Z"/>
    </g>
  </g>
</svg>