<?xml version="1.0" encoding="UTF-8"?><svg id="a" xmlns="http://www.w3.org/2000/svg" width="21.088" height="30.133" viewBox="0 0 27.49 35.03"><path d="M13.64,18.36c-.6-.38-1.26-.62-1.94-.76v-2.27c.36,.13,.69,.33,.98,.59,.43,.48,1.16,.52,1.64,.09,.47-.42,.52-1.13,.11-1.61-.74-.76-1.7-1.26-2.73-1.46v-.1c0-.64-.52-1.16-1.16-1.16s-1.16,.52-1.16,1.16v.12c-.69,.13-1.35,.38-1.94,.76-.92,.55-1.5,1.53-1.53,2.6,.04,1.07,.62,2.05,1.53,2.6,.6,.38,1.26,.62,1.94,.76v2.27c-.35-.13-.68-.33-.97-.58l-.04-.03c-.42-.46-1.12-.52-1.6-.11-.49,.41-.55,1.14-.14,1.63,0,0,.04,.04,.04,.04h0c.74,.75,1.69,1.25,2.71,1.44v.1c0,.64,.52,1.16,1.16,1.16s1.16-.52,1.16-1.16v-.12c.69-.13,1.35-.38,1.94-.76,.92-.55,1.5-1.53,1.53-2.6-.04-1.07-.62-2.05-1.53-2.6Zm-4.26-1.06c-.23-.08-.45-.17-.66-.3-.42-.28-.5-.54-.5-.67s.08-.39,.5-.67c.21-.13,.43-.22,.66-.3v1.95Zm2.97,4.34c-.21,.13-.43,.22-.66,.3v-1.95c.23,.08,.45,.17,.66,.3,.42,.28,.5,.54,.5,.67s-.08,.39-.5,.67Z" fill="#2563eb"/><path d="M12.03,6.55H4.5c-1.66,0-3,1.34-3,3V30.53c0,1.66,1.34,3,3,3h11.99c1.66,0,3-1.34,3-3V15.25m-8.99,13.78h0Z" fill="none" stroke="#2563eb" stroke-linecap="round" stroke-linejoin="round" stroke-width="3"/><path id="b" d="M26.29,7.95c0,3.73-3.02,6.75-6.75,6.75m6.75-6.75c0-3.73-3.02-6.75-6.75-6.75m6.75,6.75H12.8m6.75,6.75c-3.73,0-6.75-3.02-6.75-6.75m6.75,6.75c1.24,0,2.25-3.02,2.25-6.75s-1.01-6.75-2.25-6.75m0,13.49c-1.24,0-2.25-3.02-2.25-6.75s1.01-6.75,2.25-6.75m-6.75,6.75c0-3.73,3.02-6.75,6.75-6.75" fill="none" stroke="#2563eb" stroke-linecap="round" stroke-linejoin="round" stroke-width="2.4"/></svg>