<svg xmlns="http://www.w3.org/2000/svg" width="36.058" height="36.058" viewBox="0 0 36.058 36.058">
  <g id="Grupo_1543" data-name="Grupo 1543" transform="translate(-4027.246 126.754)">
    <path id="Trazado_4884" data-name="Trazado 4884" d="M18.029,0A18.029,18.029,0,1,0,36.058,18.029,18.029,18.029,0,0,0,18.029,0Zm-1.94,16.249h0l8.327-8.327a2.326,2.326,0,0,1,3.279,0h0a2.325,2.325,0,0,1,0,3.279l-6.687,6.687,6.687,6.687a2.325,2.325,0,0,1,0,3.279h0a2.326,2.326,0,0,1-3.279,0l-8.327-8.327-.042-.043-.04-.043-.039-.044-.038-.045-.036-.046h0l-.035-.047-.034-.047h0l-.032-.048-.031-.048-.03-.049-.028-.05-.027-.05h0l-.026-.051h0l-.024-.051h0l-.023-.052-.022-.052-.02-.052-.019-.053h0l-.018-.053h0l-.017-.054h0l-.015-.054h0l-.014-.054h0q-.007-.027-.013-.054l-.011-.055h0c0-.018-.007-.037-.01-.055h0l-.009-.055h0l-.007-.055h0c0-.018,0-.037-.006-.055h0c0-.019,0-.037,0-.056s0-.037,0-.056h0l0-.056h0c0-.019,0-.037,0-.056h0v-.056h0l0-.056h0q0-.028,0-.056l0-.056h0c0-.018,0-.037.006-.055h0l.007-.055h0l.009-.055h0c0-.018.006-.037.01-.055h0c0-.018.007-.037.011-.055s.008-.036.013-.054h0l.014-.054h0l.015-.054h0l.017-.054h0l.018-.053h0l.019-.053.02-.052.022-.052.023-.052h0l.024-.051h0l.026-.051h0l.027-.05.028-.05.03-.049.031-.048.032-.048h0l.034-.047.035-.047h0l.036-.046.038-.045.039-.044.04-.043.042-.043ZM7.451,9.8h0V26.21A2.325,2.325,0,0,0,9.77,28.528h0a2.326,2.326,0,0,0,2.319-2.319V12.115H18.5l4.637-4.638H9.77A2.325,2.325,0,0,0,7.451,9.8Z" transform="translate(4027.246 -126.754)" fill="#007ab8" fill-rule="evenodd"/>
  </g>
</svg>
