<svg xmlns="http://www.w3.org/2000/svg" width="30.621" height="30.621" viewBox="0 0 30.621 30.621">
  <g id="Grupo_1532" data-name="Grupo 1532" transform="translate(-4084 116.621)">
    <path id="Trazado_4874" data-name="Trazado 4874" d="M406.5,99H414m0,0v7.5m0-7.5-9,9m-15-9a3,3,0,0,0-3,3v1.5A22.5,22.5,0,0,0,409.5,126H411a3,3,0,0,0,3-3v-4.919a1.5,1.5,0,0,0-1.026-1.423l-6.74-2.247a1.5,1.5,0,0,0-1.817.753l-1.692,3.385a16.56,16.56,0,0,1-8.275-8.275l3.385-1.692a1.5,1.5,0,0,0,.753-1.816l-2.247-6.74A1.5,1.5,0,0,0,394.919,99Z" transform="translate(3698.5 -213.5)" fill="none" stroke="#2563eb" stroke-linecap="round" stroke-linejoin="round" stroke-width="3"/>
  </g>
</svg>
