<svg xmlns="http://www.w3.org/2000/svg" width="26.895" height="27" viewBox="0 0 26.895 27">
  <path id="utensils-alt" d="M20.19,18.33a1.345,1.345,0,0,0-1.909,1.9l8.308,8.308a1.345,1.345,0,1,0,1.909-1.9Zm1.653-3.347a4.033,4.033,0,0,0,2.85-1.183L28.5,10a1.345,1.345,0,1,0-1.909-1.9l-3.8,3.8a1.344,1.344,0,0,1-1.9,0l4.759-4.759a1.345,1.345,0,1,0-1.909-1.9L18.994,10h0a1.344,1.344,0,0,1,0-1.9l3.791-3.8a1.344,1.344,0,1,0-1.9-1.9l-3.8,3.8a4.033,4.033,0,0,0,0,5.7h0l-1.64,1.667-2.1-2.07a5.592,5.592,0,0,0-.995-6.721C10.417,2.844,5.4.68,3.037,3.086S2.809,10.452,4.691,12.4a5.861,5.861,0,0,0,3.952,1.721h.188a5.216,5.216,0,0,0,2.581-.726l2.11,2.07L2.392,26.6a1.345,1.345,0,0,0,1.909,1.9l12.1-12.1h0l2.581-2.581a4.033,4.033,0,0,0,2.863,1.17Zm-11.2-4.3a2.594,2.594,0,0,1-1.922.753,3.038,3.038,0,0,1-2.07-.941C5.2,9.041,4.18,5.748,4.946,4.981a1.344,1.344,0,0,1,.887-.269,7.891,7.891,0,0,1,4.624,1.976A2.85,2.85,0,0,1,10.646,10.681Z" transform="translate(-1.993 -1.93)" fill="#e11d48"/>
</svg>
