<svg xmlns="http://www.w3.org/2000/svg" width="36.814" height="37.735" viewBox="0 0 36.814 37.735">
  <g id="Capa_x0020_1" transform="translate(0.013 0)">
    <path id="Trazado_4527" data-name="Trazado 4527" d="M35.537,15.723A3.117,3.117,0,0,1,36.762,17.8a3.128,3.128,0,0,1-2.691,3.567,1.841,1.841,0,0,1-.438.044,3.092,3.092,0,0,1-1.882-.613,3.15,3.15,0,0,1-1.225-2.1.971.971,0,0,1-.044-.306l-4.464-.262a7.955,7.955,0,0,1-1.51,3.961,8.336,8.336,0,0,1-3.26,2.691l1.05,2.494a5.368,5.368,0,0,1,1.707-.263h.044a5.233,5.233,0,0,1,3.786,1.641,5.389,5.389,0,0,1-.066,7.549,5.211,5.211,0,0,1-3.763,1.532h-.087a5.081,5.081,0,0,1-3.786-1.6,5.389,5.389,0,0,1,.109-7.593,5.347,5.347,0,0,1,1.4-1.007l-1.05-2.494a7.948,7.948,0,0,1-2.757.481,7.851,7.851,0,0,1-6.17-2.8l-4.289,3.5a3.711,3.711,0,0,1,.263,3.326,3.6,3.6,0,0,1-.832,1.379,3.833,3.833,0,0,1-1.313.9,3.988,3.988,0,0,1-1.532.306,4.259,4.259,0,0,1-1.357-.219A3.872,3.872,0,0,1,.373,29.859a3.756,3.756,0,0,1-.131-3.02,3.883,3.883,0,0,1,2.035-2.232,3.7,3.7,0,0,1,3-.131,3.57,3.57,0,0,1,1.663,1.182L11.227,22.2a8.04,8.04,0,0,1-1.619-4.9,7.907,7.907,0,0,1,2.276-5.689L9.039,8.59A4.811,4.811,0,0,1,5.931,9.684H5.625A4.611,4.611,0,0,1,2.3,8.021,4.744,4.744,0,0,1,1.118,4.5a4.622,4.622,0,0,1,1.641-3.3A4.7,4.7,0,0,1,6.281.012,4.641,4.641,0,0,1,9.607,1.653a4.7,4.7,0,0,1,1.182,3.523A4.86,4.86,0,0,1,9.52,8.108l2.888,3.02a7.921,7.921,0,0,1,5.427-2.057A8.058,8.058,0,0,1,23.13,11l2.1-2.276a4.108,4.108,0,0,1-1.138-2.757A4.3,4.3,0,0,1,26.04,2.2a4.023,4.023,0,0,1,2.079-.656A4.1,4.1,0,0,1,31.2,2.638a4.131,4.131,0,0,1,1.379,2.954,4.03,4.03,0,0,1-1.116,3.063,4.185,4.185,0,0,1-2.954,1.379h-.175a4.124,4.124,0,0,1-2.582-.875l-2.144,2.319a7.859,7.859,0,0,1,2.451,5.82v.131l4.464.306a3.093,3.093,0,0,1,.919-1.729,3.265,3.265,0,0,1,1.751-.9,3.044,3.044,0,0,1,2.341.613Zm-7.33-12.91a2.807,2.807,0,0,0-2.057.963,2.853,2.853,0,0,0-.766,2.144,2.918,2.918,0,0,0,.963,2.057,2.784,2.784,0,0,0,2.122.766,2.918,2.918,0,0,0,2.057-.963,2.785,2.785,0,0,0,.766-2.122A2.954,2.954,0,0,0,30.351,3.6a2.921,2.921,0,0,0-2.013-.788h-.131Zm-21.75,26.3a2.717,2.717,0,0,0-.109-2.057A2.443,2.443,0,0,0,4.837,25.7a2.342,2.342,0,0,0-.875-.175,2.647,2.647,0,0,0-1.532.481,2.692,2.692,0,0,0-1.007,1.269,2.979,2.979,0,0,0-.109,1.379,2.494,2.494,0,0,0,.569,1.225,2.742,2.742,0,0,0,1.16.81,2.453,2.453,0,0,0,.919.175,2.548,2.548,0,0,0,1.51-.481,2.739,2.739,0,0,0,.985-1.269Zm17.549-.832a4.024,4.024,0,0,0-2.888,1.182,3.98,3.98,0,0,0-1.2,2.866,3.9,3.9,0,0,0,1.16,2.888,4.023,4.023,0,0,0,2.866,1.247,3.791,3.791,0,0,0,2.888-1.16,4.017,4.017,0,0,0,1.225-2.888,3.9,3.9,0,0,0-1.16-2.888,4,4,0,0,0-2.845-1.247h-.044ZM5.691,8.393A3.419,3.419,0,0,0,8.273,7.54,3.448,3.448,0,0,0,9.5,5.089a3.341,3.341,0,0,0-.875-2.582A3.6,3.6,0,0,0,6.194,1.282H5.931a3.431,3.431,0,0,0-2.319.875,3.46,3.46,0,0,0-1.2,2.429,3.419,3.419,0,0,0,.853,2.582A3.428,3.428,0,0,0,5.691,8.393ZM33.918,20.121a1.766,1.766,0,0,0,1.225-.744A1.9,1.9,0,0,0,35.515,18a1.982,1.982,0,0,0-.656-1.16,1.8,1.8,0,0,0-1.225-.46.828.828,0,0,0-.263.044,1.771,1.771,0,0,0-1.225.7,1.747,1.747,0,0,0-.372,1.379,1.841,1.841,0,0,0,.744,1.247,1.811,1.811,0,0,0,1.4.372Z" transform="translate(0 0)" fill="#0f172a"/>
    <path id="Trazado_4528" data-name="Trazado 4528" d="M144.693,80.058a3.448,3.448,0,0,0,1.225-2.451,3.341,3.341,0,0,0-.875-2.582,3.6,3.6,0,0,0-2.429-1.225h-.263a3.56,3.56,0,1,0,2.341,6.258Z" transform="translate(-136.42 -72.518)" fill="#fff" fill-rule="evenodd"/>
    <path id="Trazado_4529" data-name="Trazado 4529" d="M77.909,1470.545a2.342,2.342,0,0,0-.875-.175,2.647,2.647,0,0,0-1.532.481,2.692,2.692,0,0,0-1.007,1.269,2.978,2.978,0,0,0-.109,1.378,2.5,2.5,0,0,0,.569,1.225,2.742,2.742,0,0,0,1.16.81,2.454,2.454,0,0,0,.919.175,2.547,2.547,0,0,0,1.51-.481,2.629,2.629,0,0,0,.875-3.326,2.443,2.443,0,0,0-1.51-1.357Z" transform="translate(-73.072 -1444.844)" fill="#fff" fill-rule="evenodd"/>
    <path id="Trazado_4530" data-name="Trazado 4530" d="M1149.011,1630.352a3.979,3.979,0,0,0-1.2,2.866,3.9,3.9,0,0,0,1.159,2.888,4.023,4.023,0,0,0,2.867,1.247,3.791,3.791,0,0,0,2.888-1.159,4.019,4.019,0,0,0,1.225-2.888,3.9,3.9,0,0,0-1.16-2.889,4,4,0,0,0-2.845-1.247h-.044a4.025,4.025,0,0,0-2.888,1.182Z" transform="translate(-1127.894 -1600.887)" fill="#fff" fill-rule="evenodd"/>
    <path id="Trazado_4531" data-name="Trazado 4531" d="M1829.854,945.613a1.841,1.841,0,0,0,.744,1.247,1.812,1.812,0,0,0,1.4.372,1.765,1.765,0,0,0,1.225-.744,1.9,1.9,0,0,0,.372-1.379,1.982,1.982,0,0,0-.656-1.16,1.8,1.8,0,0,0-1.225-.46.828.828,0,0,0-.263.044,1.771,1.771,0,0,0-1.225.7,1.747,1.747,0,0,0-.372,1.378Z" transform="translate(-1798.08 -927.11)" fill="#fff" fill-rule="evenodd"/>
    <path id="Trazado_4532" data-name="Trazado 4532" d="M1465.753,167.96a2.918,2.918,0,0,0,2.057-.963,2.785,2.785,0,0,0,.766-2.122,2.954,2.954,0,0,0-.941-2.057,2.921,2.921,0,0,0-2.013-.788h-.131a2.808,2.808,0,0,0-2.057.963,2.854,2.854,0,0,0-.766,2.144,2.918,2.918,0,0,0,.963,2.057,2.784,2.784,0,0,0,2.122.766Z" transform="translate(-1437.284 -159.217)" fill="#fff" fill-rule="evenodd"/>
  </g>
</svg>
