<svg xmlns="http://www.w3.org/2000/svg" width="30" height="27" viewBox="0 0 30 27">
  <path id="Trazado_4881" data-name="Trazado 4881" d="M349.5,823.5H342a3,3,0,0,0-3,3V840a3,3,0,0,0,3,3h21a3,3,0,0,0,3-3V826.5a3,3,0,0,0-3-3h-7.5m-6,0V822a3,3,0,1,1,6,0v1.5m-6,0a3,3,0,0,0,6,0m-7.5,12a3,3,0,1,0-3-3A3,3,0,0,0,348,835.5Zm0,0a4.5,4.5,0,0,1,4.244,3m-4.244-3a4.5,4.5,0,0,0-4.243,3M357,831h4.5m-4.5,6h3" transform="translate(-337.5 -817.5)" fill="none" stroke="#0891b2" stroke-linecap="round" stroke-linejoin="round" stroke-width="3"/>
</svg>
