<svg xmlns="http://www.w3.org/2000/svg" width="42.719" height="27.037" viewBox="0 0 42.719 27.037">
  <g id="Grupo_1241" data-name="Grupo 1241" transform="translate(-107.203 -606.501)">
    <path id="Trazado_4602" data-name="Trazado 4602" d="M30.372,42.711a8.528,8.528,0,0,1-3.584,6.741A17.09,17.09,0,0,1,17.812,53L8.728,59.317l1.6-6.706a15.919,15.919,0,0,1-7.433-3.779A8.222,8.222,0,0,1,0,42.711,7.97,7.97,0,0,1,2.04,37.46a13.659,13.659,0,0,1,5.535-3.8A20.541,20.541,0,0,1,15.2,32.28a20.538,20.538,0,0,1,7.628,1.384,13.513,13.513,0,0,1,5.517,3.8,8.009,8.009,0,0,1,2.022,5.251ZM8.657,35.3l1.206-.639,1.206.639-.213-1.348.639-.639a16.556,16.556,0,0,0-2.59.639L8.657,35.3Zm5.464-1.348L13.909,35.3l1.206-.639,1.206.639-.248-1.348L17,33.025q-.958-.071-1.774-.071a18.623,18.623,0,0,0-1.987.106l.887.887Zm5.216,0-.248,1.313,1.206-.6,1.206.6-.213-1.313.035-.071a17.213,17.213,0,0,0-2.7-.639l.71.71ZM2.377,39.589l1.206.6-.213-1.313.958-.958L2.98,37.709l-.071-.142a8.326,8.326,0,0,0-1.668,2.626l1.135-.6Zm4.222-.71-.213,1.348,1.206-.639,1.206.639-.213-1.348.958-.958L8.2,37.709l-.6-1.206-.6,1.206-1.348.213.958.958Zm5.251,0L11.6,40.228l1.206-.639,1.206.639L13.8,38.879l.958-.958-1.348-.213-.6-1.206-.6,1.206-1.348.213.993.958Zm5.18,0-.213,1.348,1.206-.639,1.206.639-.213-1.348.958-.958-1.348-.213-.6-1.206-.6,1.206-1.348.213Zm5.216,0-.213,1.348,1.206-.639,1.206.639-.213-1.348.958-.958-1.348-.213-.6-1.206-.6,1.206-1.348.213.958.958Zm4.258-.958.958.958-.213,1.348,1.206-.639.6.319a8.588,8.588,0,0,0-1.384-2.164l-1.171.178ZM1.419,42.853l-.674-.106a5.873,5.873,0,0,0,.035.71l.639-.6ZM5.89,45.16l-.248-1.348.993-.958-1.384-.177-.6-1.242L4.08,42.676,2.7,42.853l.993.958L3.477,45.16l1.206-.639,1.206.639Zm5.18,0-.213-1.348.993-.958-1.384-.177-.6-1.242L9.3,42.676l-1.384.177.993.958L8.657,45.16l1.206-.639,1.206.639Zm5.216,0-.213-1.348.958-.958-1.348-.177-.6-1.242-.6,1.242-1.348.177.993.958-.248,1.348,1.206-.639,1.206.639Zm5.216,0-.213-1.348.993-.958L20.9,42.676l-.6-1.242-.568,1.242-1.384.177.993.958-.248,1.348,1.206-.639,1.206.639Zm5.961-2.306-1.348-.177-.6-1.242-.6,1.242-1.348.177.993.958L24.34,45.16l1.206-.639,1.206.639L26.5,43.811l.958-.958Zm2.2-.142-.887.142.816.816A6.789,6.789,0,0,0,29.662,42.711ZM11.07,55.023l-.213-1.348.993-.958-.781-.106-.5,2.129Zm-.958-3.229-.248-.5-.178.39q.319.071.426.107Zm5.571.745-.6-1.242-.6,1.242-1.348.177.993.958-.213,1.171,3.051-2.129ZM20.3,51.3l-.248.568a3.145,3.145,0,0,0,.461-.142L20.3,51.3ZM4.329,47.785,2.98,47.608l-.6-1.242-.248.5a12.359,12.359,0,0,0,1.313,1.455.612.612,0,0,0,.178.177l.71-.71Zm5.216,0L8.2,47.608l-.6-1.242-.6,1.242-1.348.177.958.958-.213,1.348,1.206-.639,1.206.639-.213-1.348Zm3.867-.177-.6-1.242-.6,1.242-1.348.177.993.958L11.6,50.091l1.206-.639,1.206.639L13.8,48.743l.958-.958-1.348-.177Zm6.564.177-1.348-.177-.6-1.242-.6,1.242-1.348.177.958.958-.213,1.348,1.206-.639,1.206.639-.213-1.348Zm5.216,0-1.348-.177-.6-1.242-.6,1.242-1.348.177.958.958-.213,1.348,1.206-.639,1.206.639-.213-1.348.958-.958Zm3.264-1.419-.39.781q.213-.284.461-.639Zm-1.419,1.916a5.683,5.683,0,0,0,.639-.674l-1.171.177Z" transform="translate(107.203 574.221)" fill="#0270bf"/>
    <path id="Trazado_4603" data-name="Trazado 4603" d="M2677.175,322.93a18.029,18.029,0,0,1,6.706,1.224,12.009,12.009,0,0,1,4.879,3.353,7.026,7.026,0,0,1,1.792,4.613,7.248,7.248,0,0,1-2.537,5.375,13.829,13.829,0,0,1-6.546,3.317l-.071,5.571-6.529-5.216a19.5,19.5,0,0,1-3.229-.674,14.359,14.359,0,0,0,5.553-4.134,8.809,8.809,0,0,0,2.04-5.588,8.413,8.413,0,0,0-1.118-4.187c-1.678-2.983-4.785-3.654-.94-3.654Zm2.625,6.351h9.261a8.548,8.548,0,0,0-2.874-3.051c0-.024-.023-.047-.071-.071l-.071-.036h-7.416A9.11,9.11,0,0,1,2679.8,329.281Zm-.035,3.158a9.086,9.086,0,0,1-1.206,3.158h10.112a6.18,6.18,0,0,0,1.135-3.158Zm-3.974,6.316a17.084,17.084,0,0,1-2.129,1.49,11.949,11.949,0,0,0,1.278.213l.213.035,1.81,1.455h3.761v-1.7l.567-.106a14.085,14.085,0,0,0,3.655-1.384h-9.154Z" transform="translate(-2540.629 286.16)" fill="#db0838"/>
  </g>
</svg>
