<?xml version="1.0" encoding="utf-8"?>
<!-- Generator: Adobe Illustrator 26.3.1, SVG Export Plug-In . SVG Version: 6.00 Build 0)  -->
<svg version="1.1" id="Capa_1" xmlns="http://www.w3.org/2000/svg" xmlns:xlink="http://www.w3.org/1999/xlink" x="0px" y="0px"
	 viewBox="0 0 41.9 20.2" style="enable-background:new 0 0 41.9 20.2;" xml:space="preserve">
<style type="text/css">
	.st0{fill:#0891B2;}
</style>
<path class="st0" d="M40.9,10.4V8.7c0-1.8-0.7-3.5-2-4.8l-0.3-0.2c-1.5-1.5-3.6-2.4-5.7-2.6L26,0.4c-2.8-0.2-5.7,0.1-8.4,1.1
	c-1.5,0.5-3,1.2-4.3,2l-1.8,1.1C8.8,4.9,1.4,6.2,0.7,10c-0.2,1.3-0.4,2.6-0.2,3.6l-0.1,0.1c-0.2,0.3-0.3,0.8-0.1,1.2
	c0.2,0.5,1,2,4.5,2c0.1,0,0.1,0,0.2,0c0,0,0,0,0.1,0c0.8,1.4,2.2,2.4,4,2.4c1.7,0,3.2-1,4-2.4l16.1-0.4c0.7,1.7,2.3,2.8,4.2,2.8
	c2,0,3.6-1.3,4.2-3.1l1.6-0.2c1.5-0.2,2.5-1.5,2.5-2.9v-0.3C41.7,11.8,41.4,11,40.9,10.4z M18.5,4c2.4-0.8,4.8-1.1,7.3-0.9l6.9,0.6
	c0.2,0,0.4,0.1,0.6,0.1l-0.5,0.8L16.2,6.2c-0.7,0.1-1.4,0-2.1-0.3l0.5-0.3C15.8,5,17.1,4.4,18.5,4z M9,16.6c-1,0-1.9-0.8-1.9-1.9
	S8,12.9,9,12.9s1.9,0.8,1.9,1.9S10,16.6,9,16.6z M33.3,16.6c-1,0-1.9-0.8-1.9-1.9s0.8-1.9,1.9-1.9s1.9,0.8,1.9,1.9
	S34.3,16.6,33.3,16.6z M39.1,13c0,0.2-0.1,0.3-0.3,0.3l-1.2,0.2c-0.5-1.9-2.3-3.3-4.3-3.3c-2.1,0-3.9,1.5-4.4,3.5l-15.5,0.4
	c-0.3-2.2-2.1-3.9-4.4-3.9c-2.3,0-4.2,1.7-4.4,4c-0.6,0-1-0.1-1.3-0.2c0.1-0.3,0.1-0.6,0-0.8C3.2,13.1,3.1,13,3,13
	c0-0.1,0-0.4,0-0.8h0.5c0.3,0,0.6-0.1,0.9-0.3l1.4-1.3C6.4,10.1,6.5,9.2,6,8.7c0,0-0.1-0.1-0.1-0.1C7.5,8,9.6,7.4,11.7,7.1
	c0.1,0.4,0.3,0.8,0.7,1l0.3,0.1c1,0.4,2,0.6,3,0.6c0.2,0,0.5,0,0.7,0l17.2-1.7c0.4,0,0.7-0.3,1-0.6l1.2-1.8c0.3,0.2,0.7,0.5,1,0.8
	l0.3,0.2c0.3,0.3,0.5,0.7,0.7,1c0,0,0,0-0.1,0l-0.3-0.3c-0.5-0.5-1.3-0.5-1.9,0s-0.5,1.3,0,1.9l0.3,0.3c0.6,0.6,1.4,0.9,2.2,0.9h0.2
	v1.3c0,0.3,0.1,0.7,0.4,0.9l0.1,0.1c0.2,0.2,0.3,0.5,0.3,0.8V13z"/>
</svg>
