<svg xmlns="http://www.w3.org/2000/svg" width="21.088" height="30.133" viewBox="0 0 21.088 30.133">
  <g id="Grupo_1533" data-name="Grupo 1533" transform="translate(-4034.583 123.939)">
    <g id="Grupo_1526" data-name="Grupo 1526" transform="translate(4036.083 -122.439)">
      <path id="Trazado_4876" data-name="Trazado 4876" d="M399.044,889.61h.015m-6.045,4.522h12.059a3.014,3.014,0,0,0,3.015-3.015v-21.1A3.014,3.014,0,0,0,405.074,867H393.015A3.014,3.014,0,0,0,390,870.015v21.1A3.014,3.014,0,0,0,393.015,894.133Z" transform="translate(-390 -867)" fill="none" stroke="#2563eb" stroke-linecap="round" stroke-linejoin="round" stroke-width="3"/>
      <path id="Trazado_4877" data-name="Trazado 4877" d="M16.808,491.509a1.507,1.507,0,0,0,2.277-1.975Zm-5.557,7.07a1.507,1.507,0,1,0-2.277,1.975Zm4.286-11.072a1.507,1.507,0,1,0-3.015,0Zm-3.015,15.074a1.507,1.507,0,0,0,3.015,0Zm1.507-9.044a4.334,4.334,0,0,1-2.361-.63c-.549-.366-.653-.705-.653-.877H8a4.126,4.126,0,0,0,2,3.386,7.324,7.324,0,0,0,4.034,1.137Zm-3.015-1.507c0-.172.1-.511.653-.877a4.334,4.334,0,0,1,2.361-.63v-3.015A7.325,7.325,0,0,0,10,488.644a4.126,4.126,0,0,0-2,3.386Zm3.015-1.507a3.776,3.776,0,0,1,2.779.987l2.277-1.975a6.719,6.719,0,0,0-5.056-2.027Zm0,6.029a4.334,4.334,0,0,1,2.361.63c.549.366.653.705.653.877h3.015a4.126,4.126,0,0,0-2-3.386,7.325,7.325,0,0,0-4.034-1.137Zm-1.507-9.044v1.507h3.015v-1.507Zm0,13.566v1.507h3.015v-1.507Zm1.507-1.507a3.775,3.775,0,0,1-2.779-.987l-2.277,1.975a6.719,6.719,0,0,0,5.056,2.027Zm3.015-1.507c0,.172-.1.511-.653.877a4.333,4.333,0,0,1-2.361.63v3.015a7.325,7.325,0,0,0,4.034-1.137,4.126,4.126,0,0,0,2-3.386Zm-4.522-9.044v12.059h3.015V489.015Z" transform="translate(-4.985 -485.246)" fill="#2563eb"/>
    </g>
  </g>
</svg>
