<?xml version="1.0" encoding="UTF-8"?>
<svg id="Capa_2" data-name="Capa 2" xmlns="http://www.w3.org/2000/svg" viewBox="0 0 60 40">
  <defs>
    <style>
      .cls-1 {
        fill: #233551;
      }

      .cls-2 {
        fill: #fff;
      }
    </style>
  </defs>
  <g id="Capa_1-2" data-name="Capa 1">
    <g>
      <rect class="cls-1" width="60" height="40" rx="5" ry="5"/>
      <path class="cls-2" d="M47.85,19.7c0,1.94-.47,3.72-1.42,5.34-.95,1.63-2.24,2.92-3.89,3.88-1.65.96-3.43,1.44-5.34,1.44-2.37,0-4.52-.72-6.45-2.16,1.59-1.44,2.67-3.16,3.24-5.16h-.99c-.6,1.79-1.59,3.31-2.96,4.57-1.38-1.26-2.37-2.78-2.96-4.57h-.99c.58,2,1.66,3.72,3.24,5.16-1.94,1.44-4.08,2.16-6.42,2.16-1.94,0-3.73-.48-5.37-1.44-1.65-.96-2.94-2.25-3.89-3.88s-1.42-3.41-1.42-5.34.47-3.72,1.42-5.34,2.24-2.92,3.89-3.88c1.65-.96,3.44-1.44,5.37-1.44,2.35,0,4.49.72,6.42,2.16-1.67,1.5-2.79,3.36-3.37,5.56h.99c.58-1.96,1.61-3.61,3.09-4.97,1.48,1.36,2.51,3.02,3.09,4.97h.99c-.58-2.2-1.7-4.06-3.37-5.56,1.94-1.44,4.09-2.16,6.45-2.16,1.92,0,3.7.48,5.34,1.44,1.65.96,2.94,2.25,3.89,3.88.95,1.63,1.42,3.41,1.42,5.34ZM16.87,17.16l-1.08,3.18-.03-3.18h-1.61l-.86,5.13h1.05l.68-3.92.06,3.92h.77l1.39-3.95-.62,3.95h1.08l.86-5.13h-1.7ZM21.82,19.23c0-.8-.48-1.2-1.45-1.2-.37,0-.8.07-1.3.22-.1.58-.15.9-.15.96.39-.14.78-.22,1.17-.22.47,0,.71.13.71.4,0,.02-.01.04-.03.06,0,.02,0,.05-.02.08s-.02.07-.02.11c-.12-.02-.26-.03-.4-.03-.02,0-.03.01-.03.03-.62-.02-1.1.11-1.44.4-.34.29-.51.68-.51,1.17,0,.35.09.63.28.83.19.21.43.31.74.31.49,0,.88-.16,1.14-.49l-.03.43h.93c.02-.16.13-.91.34-2.22.04-.47.06-.75.06-.83ZM20.61,20.41c-.02.33-.1.59-.25.79-.14.2-.32.29-.52.29-.27,0-.4-.14-.4-.43,0-.43.31-.65.93-.65h.25ZM24.87,18.12c-.25-.06-.58-.09-.99-.09-1.09,0-1.64.47-1.64,1.42,0,.49.28.88.83,1.14.23.1.37.19.43.25.06.06.09.13.09.22,0,.25-.21.37-.62.37-.29,0-.63-.05-1.02-.15-.08.62-.12.94-.12.96.31.08.69.12,1.14.12,1.13.02,1.7-.44,1.7-1.39,0-.54-.26-.93-.77-1.17-.23-.08-.37-.15-.43-.2-.06-.05-.09-.13-.09-.23,0-.23.17-.34.52-.34.27,0,.54.02.8.06l.15-.96ZM26.6,18.12l.12-.65h-1.08c-.29,1.65-.45,2.6-.49,2.87-.1.58-.15.94-.15,1.08.02.62.32.93.9.93.27,0,.52-.04.77-.12l.15-.93c-.1.02-.21.03-.31.03-.25,0-.37-.1-.37-.31,0-.12.01-.24.03-.34.04-.21.09-.46.15-.77.06-.31.1-.57.12-.77h.56l.15-1.02h-.56ZM30.59,19.54c0-.45-.13-.82-.4-1.1-.27-.28-.63-.42-1.08-.42-.56,0-1.01.23-1.37.69-.36.46-.54,1.06-.54,1.78,0,1.24.62,1.85,1.85,1.85.39,0,.76-.05,1.11-.15l.19-1.05c-.35.19-.73.28-1.14.28-.31,0-.55-.07-.73-.22-.18-.14-.24-.36-.2-.65h2.16c.1-.37.15-.71.15-1.02ZM28.33,19.73c.12-.49.36-.74.71-.74h.03c.06,0,.13.01.22.03.04.02.08.05.12.09.04.04.07.09.09.14s.03.1.03.14c.02.06.03.11.03.15v.19h-1.24ZM33.3,18.09c-.23-.04-.41-.01-.56.09-.14.1-.31.3-.49.59l.06-.65h-1.02c-.08.89-.27,2.18-.56,3.89l-.06.28h1.08c.23-1.34.4-2.18.51-2.52.11-.34.31-.5.6-.48.12-.49.27-.9.43-1.2ZM36.98,17.29c-.47-.16-.88-.25-1.2-.25-.74,0-1.34.29-1.81.86-.46.58-.69,1.33-.69,2.25,0,.68.17,1.22.52,1.61.35.39.81.59,1.39.59.29,0,.62-.05.99-.15l.22-1.14c-.37.17-.69.25-.96.25-.33,0-.58-.11-.76-.34s-.26-.54-.26-.93c0-.56.13-1.01.39-1.37.26-.36.59-.54,1-.54.29,0,.62.09.99.28l.19-1.11ZM40.13,19.23c0-.8-.47-1.2-1.42-1.2-.37,0-.8.07-1.3.22-.12.58-.19.9-.19.96.39-.14.78-.22,1.17-.22.47,0,.71.13.71.4,0,.08-.02.17-.06.25-.12-.02-.25-.03-.37-.03h-.06c-.62,0-1.09.14-1.42.43-.33.29-.49.68-.49,1.17,0,.35.09.63.26.83.17.21.42.31.73.31.51,0,.9-.16,1.14-.49v.43h.9c.06-.45.17-1.19.34-2.22.04-.27.06-.55.06-.83ZM38.93,20.41c-.02.33-.1.59-.25.79-.14.2-.32.29-.52.29-.27,0-.4-.14-.4-.43,0-.43.31-.65.93-.65h.25ZM42.91,18.09c-.21-.06-.39-.04-.54.08-.15.11-.33.31-.54.6.06-.29.09-.5.09-.65h-1.02c-.12,1.24-.31,2.53-.56,3.89l-.06.28h1.08c.23-1.36.4-2.2.51-2.53.11-.33.31-.48.6-.46.1-.49.25-.9.43-1.2ZM45.66,17.16l-.22,1.48c-.29-.39-.64-.59-1.05-.59-.49,0-.92.26-1.27.77-.35.51-.52,1.11-.52,1.79,0,.54.12.96.35,1.27.24.31.56.46.97.46.37,0,.71-.14,1.02-.43l-.06.37h1.02l.86-5.13h-1.11ZM45.16,19.91c0,.41-.08.75-.23,1.02s-.37.4-.63.4c-.37,0-.56-.28-.56-.83,0-.41.08-.75.23-1,.15-.26.36-.39.6-.39.39,0,.59.27.59.8Z"/>
    </g>
  </g>
</svg>