<?xml version="1.0" encoding="utf-8"?>
<!-- Generator: Adobe Illustrator 26.2.1, SVG Export Plug-In . SVG Version: 6.00 Build 0)  -->
<svg version="1.1" id="Capa_1" xmlns="http://www.w3.org/2000/svg" xmlns:xlink="http://www.w3.org/1999/xlink" x="0px" y="0px"
	 viewBox="0 0 170 32" style="enable-background:new 0 0 170 32;" xml:space="preserve">
<g>
	<path d="M70,21h0.4v-5.3l-0.4,0c-1.2,0-2-1.1-1.5-2.3c0.2-0.6,0.8-1,1.6-1h2.1c1.2,0,1.9,0.7,1.9,1.8v8.3c0,0.1,0,0.2,0,0.3
		c-0.2,1-0.7,1.5-1.8,1.5h-2.2c-0.8,0-1.4-0.4-1.6-1C68,22.1,68.8,21,70,21 M69.9,9.6c0-0.5,0.2-1,0.6-1.4c0.8-0.8,2.1-0.8,2.9,0
		c0.8,0.8,0.8,2.1,0,2.9c-0.8,0.7-2,0.7-2.8,0C70.1,10.6,69.9,10.1,69.9,9.6"/>
	<path d="M76,22.4v-4.9c0-3,1.7-5.1,4.5-5.5c2.2-0.4,4,0.4,4.9,1.7c0.9-1.3,2.7-2,4.9-1.7c2.7,0.4,4.5,2.5,4.5,5.5v4.9
		c0,1.3-0.6,1.9-1.8,1.9h-1.4c-1.1,0-1.9-0.7-1.8-1.7c0-0.2,0-0.4,0.1-0.6c0.3-0.6,0.7-0.9,0.9-0.9l0.4,0v-3.6
		c0-1.6-0.9-2.4-2.2-2.2c-1,0.2-1.6,0.9-1.6,2.3v3.5l0.4,0c0.2,0,0.7,0.3,0.9,0.9c0.1,0.2,0.1,0.4,0.1,0.6c0,1-0.7,1.7-1.8,1.7h-2.7
		c-1.1,0-1.9-0.7-1.9-1.7c0-0.2,0-0.4,0.1-0.6c0.2-0.6,0.7-0.9,0.9-0.9l0.4,0v-3.5c0-1.4-0.6-2.1-1.6-2.3c-1.3-0.2-2.3,0.6-2.3,2.2
		v3.6l0.4,0c0.2,0,0.6,0.3,0.9,0.9c0.1,0.2,0.1,0.4,0.1,0.6c0,1-0.7,1.7-1.8,1.7h-1.4C76.5,24.3,76,23.7,76,22.4"/>
	<path d="M107.6,19.3l-7.5,0c0.4,1.6,2.2,2.5,4,1.8l0.1,0l0.8-0.4c0.7-0.4,1.2-0.4,1.8,0c1,0.6,1,1.9-0.1,2.8
		c-1.6,1.3-4.3,1.7-6.8,0.7c-3-1.2-4.6-4.3-3.6-7.6c0.6-2.2,2.4-3.8,5-4.4c2.3-0.5,4.7,0.1,6.3,1.5c0.8,0.7,1.4,1.6,1.7,2.4
		C109.9,18.3,109.2,19.3,107.6,19.3 M105.7,17.4c0-0.2-0.1-0.4-0.1-0.5c-0.5-1.4-1.9-2.2-3.4-1.8c-0.9,0.2-1.6,0.9-1.9,1.8
		c-0.1,0.2-0.1,0.4-0.1,0.5L105.7,17.4z"/>
	<path d="M67.3,16L67.3,16c0-0.5,0-1-0.1-1.5c-0.6-4.2-3.7-6.8-8-6.8h-4.7c-1.2,0-2,0.7-2,1.7c0,0.9,0.7,1.6,1.8,1.7l0.4,0H59
		c2.8,0,4.7,2,4.6,4.8c0,0,0,0,0,0.1h0c0,0,0,0,0,0c0,0,0,0,0,0h0c0,0,0,0,0,0.1c0.1,2.8-1.8,4.8-4.6,4.8h-4.4l-0.4,0
		c-1,0-1.8,0.7-1.8,1.7c0,1,0.8,1.7,2,1.7h4.7c4.3,0,7.4-2.5,8-6.8C67.2,17,67.3,16.5,67.3,16L67.3,16z"/>
	<path d="M34.1,12.5c0-6.5-7.6-11.7-17-11.7C7.6,0.8,0,6.1,0,12.5c0,5.2,4.8,9.5,11.6,11.1l-1.8,7.5L20,24.1
		C28,23.1,34.1,18.3,34.1,12.5"/>
	<path d="M126.6,19.2v-5c0-1.3,0.6-1.9,2-1.9h1.3c1.3,0,2,0.7,2,1.7c0,0.8-0.6,1.6-1.3,1.6l-0.4,0v3.2c0,1.5,0.6,2.3,1.8,2.5
		c0.3,0,0.6,0,0.8,0c1.2-0.2,1.8-1,1.8-2.5v-3.2l-0.4,0c-0.6,0-1.3-0.8-1.3-1.6c0-1,0.8-1.7,2-1.7h1.3c1.5,0,2,0.6,2,1.9v5
		c0,3.4-2,5.4-5.9,5.4C128.6,24.6,126.6,22.7,126.6,19.2"/>
	<path d="M140.4,8.5h1.9c1.4,0,1.9,0.5,1.9,1.8v3.1c0.1-0.1,0.1-0.2,0.2-0.2c1.9-1.7,5-1.7,7.4,0.4c0.8,0.7,1.4,1.7,1.8,2.8
		c1.3,4.3-1.7,8.3-6.5,8.2c-4,0-6.6-2.7-6.6-6.5v-6.3h-0.4c-0.2,0-0.4,0-0.6-0.1c-0.9-0.3-1.3-1.4-0.8-2.3
		C139,8.8,139.6,8.5,140.4,8.5 M148,21.1c1-0.3,1.8-1,2.1-2c0.5-1.9-0.9-3.7-2.8-3.7c-1.7,0-3,1.4-2.9,3
		C144.5,20.3,146.2,21.6,148,21.1"/>
	<path d="M168.2,18.3v2.6h0.3c0.8,0,1.5,0.7,1.5,1.7c0,1.1-0.7,1.7-1.8,1.7h-1.8c-0.5,0-0.6,0-0.8-0.1c-0.5-0.2-0.7-0.5-0.7-0.7
		l-0.1-0.6c-1.1,1.4-3.3,2.1-5.5,1.5c-0.5-0.1-1-0.3-1.5-0.6c-1.9-1.1-3.1-3.1-3.1-5.4c0-3,1.9-5.4,4.9-6.2c4.3-1.1,8.1,1.6,8.3,5.6
		C168.1,18,168.2,18.1,168.2,18.3 M160.7,21.2c2,0.5,3.8-1,3.8-3c0-2-1.9-3.4-3.8-2.8c-1.3,0.4-2.2,1.6-2.2,2.9
		C158.5,19.7,159.4,20.9,160.7,21.2"/>
	<path d="M111.1,16L111.1,16c0,0.5,0,1,0.1,1.5c0.6,4.2,3.7,6.8,8,6.8h4.7c1.2,0,2-0.7,2-1.7c0-0.9-0.7-1.6-1.8-1.7l-0.4,0h-4.4
		c-2.8,0-4.7-2-4.6-4.8c0,0,0,0,0-0.1h0v0v0h0c0,0,0,0,0-0.1c-0.1-2.8,1.8-4.8,4.6-4.8h4.4l0.4,0c1,0,1.8-0.7,1.8-1.7
		c0-1-0.8-1.7-2-1.7h-4.7c-4.3,0-7.4,2.5-8,6.8C111.1,15.1,111.1,15.6,111.1,16L111.1,16z"/>
	<path d="M32.9,3.7c-0.8,0-1.7,0-2.5,0.1c3,2.3,4.8,5.3,4.8,8.7c0,4.6-3.3,8.6-8.5,10.9c1.1,0.4,2.4,0.6,3.6,0.8l7.3,5.9l0.1-6.2
		c5.9-1.4,10.2-5.2,10.2-9.8C47.9,8.3,41.2,3.7,32.9,3.7"/>
</g>
</svg>
