<?xml version="1.0" encoding="UTF-8"?>
<svg id="Capa_2" data-name="Capa 2" xmlns="http://www.w3.org/2000/svg" viewBox="0 0 60 40">
  <defs>
    <style>
      .cls-1 {
        fill: #233551;
      }

      .cls-2 {
        fill: #fff;
      }
    </style>
  </defs>
  <g id="Capa_1-2" data-name="Capa 1">
    <g>
      <rect class="cls-1" width="60" height="40" rx="5" ry="5"/>
      <path class="cls-2" d="M50.9,11.39H9.1v-.57c0-.23.06-.44.17-.65.11-.2.27-.36.47-.48.2-.11.42-.17.65-.17h39.21c.36,0,.66.13.91.38.25.25.38.56.38.91v.57ZM44.25,12.37h6.65v13.53h-29.38c.28-.18.56-.41.86-.68.29-.28.53-.53.7-.74.18-.21.42-.52.72-.91.3-.39.52-.66.65-.82l1.79-2.2,2.17,2.43,1.37-1.6-2.17-2.47,3.12-3.8c.38-.61.32-1.11-.19-1.52s-1-.33-1.48.23l-2.85,3.5-3.12-3.53c-.48-.53-.97-.59-1.46-.17s-.54.92-.13,1.5l3.34,3.84-2.01,2.47c-.61.74-1.02,1.23-1.24,1.48-.22.25-.58.64-1.1,1.16-.52.52-.96.87-1.31,1.04-.36.18-.81.36-1.37.53-.56.18-1.15.27-1.79.27h-6.92v-13.53h29.68c-.38.2-.73.46-1.04.78-.32.32-.71.77-1.18,1.35-.47.58-.74.93-.82,1.03l-1.82,2.13-2.13-2.55-1.37,1.67,2.09,2.51-3.19,3.72c-.41.58-.36,1.08.15,1.5s.99.35,1.44-.21l2.96-3.42,3.04,3.61c.46.56.94.63,1.44.23.51-.4.57-.91.19-1.52l-3.27-3.91,2.05-2.39c.1-.13.25-.3.46-.53.63-.73,1.12-1.28,1.46-1.63.34-.35.79-.75,1.35-1.2.56-.44,1.13-.75,1.71-.93.58-.18,1.23-.25,1.94-.23ZM50.9,26.89v.57c0,.36-.13.66-.38.91-.25.25-.56.38-.91.38H10.39c-.36,0-.66-.13-.91-.38-.25-.25-.38-.56-.38-.91v-.57h41.8ZM19.8,22.77c1.08-1.08,1.62-2.37,1.62-3.88s-.54-2.8-1.62-3.88c-1.08-1.08-2.37-1.61-3.88-1.61s-2.8.54-3.88,1.61c-1.08,1.08-1.62,2.37-1.62,3.88s.54,2.8,1.62,3.88c1.08,1.08,2.37,1.62,3.88,1.62s2.8-.54,3.88-1.62ZM13.47,16.44c.68-.68,1.5-1.03,2.45-1.03s1.77.34,2.45,1.03c.68.68,1.03,1.5,1.03,2.45s-.34,1.77-1.03,2.45-1.5,1.03-2.45,1.03-1.77-.34-2.45-1.03c-.68-.68-1.03-1.5-1.03-2.45s.34-1.77,1.03-2.45ZM44.52,24.38c1.52,0,2.82-.54,3.9-1.62s1.61-2.37,1.61-3.88-.54-2.8-1.61-3.88c-1.08-1.08-2.37-1.61-3.88-1.61s-2.8.54-3.88,1.61c-1.08,1.08-1.62,2.38-1.62,3.9,0,.99.25,1.9.74,2.74.49.84,1.16,1.5,1.99,2,.84.49,1.75.74,2.74.74ZM44.52,15.41c.96,0,1.79.34,2.47,1.03.68.68,1.03,1.5,1.03,2.45s-.34,1.77-1.03,2.45c-.68.68-1.5,1.03-2.45,1.03s-1.77-.34-2.45-1.03-1.03-1.49-1.03-2.43c0-.38.06-.75.17-1.1.11-.35.28-.68.49-.97.21-.29.47-.54.76-.76.29-.21.61-.38.95-.49.34-.11.7-.17,1.08-.17Z"/>
    </g>
  </g>
</svg>