<?xml version="1.0" encoding="UTF-8"?>
<svg id="Capa_2" data-name="Capa 2" xmlns="http://www.w3.org/2000/svg" viewBox="0 0 60 40">
  <defs>
    <style>
      .cls-1 {
        fill: #233551;
      }

      .cls-2 {
        fill: #fff;
      }
    </style>
  </defs>
  <g id="Capa_1-2" data-name="Capa 1">
    <g>
      <rect class="cls-1" width="60" height="40" rx="5" ry="5"/>
      <path class="cls-2" d="M19.25,14.88c0,.56-.13,1.19-.38,1.9-.43,1.24-1.24,2.09-2.43,2.55-.61.2-1.28.32-2.01.34h-1.48c-.53,0-.85.25-.95.76-.03.1-.25,1.53-.68,4.29,0,.05-.03.08-.08.08h-2.39c-.13,0-.23-.04-.3-.13-.08-.09-.1-.2-.08-.32l1.86-11.89c.02-.15.1-.28.23-.38.13-.1.27-.15.42-.15h4.83c.18,0,.44.04.78.11s.64.17.89.27c.58.2,1.03.53,1.33.99.3.43.46.96.46,1.6ZM20.65,17.16c.1.46.09,1-.04,1.63-.46,2.38-1.98,3.57-4.56,3.57h-.34c-.15,0-.28.04-.38.13-.1.09-.17.21-.19.36l-.04.15-.42,2.81-.04.11c-.03.13-.09.23-.19.32-.1.09-.22.13-.34.13h-2.05c-.13,0-.22-.04-.27-.11-.08-.08-.1-.16-.08-.27,0-.08.02-.27.08-.57.05-.3.09-.57.13-.8.04-.23.08-.49.13-.8.05-.3.08-.49.09-.57.01-.08.04-.27.1-.57.05-.3.09-.57.11-.8.03-.1.04-.21.06-.32.01-.11.02-.22.04-.3.01-.09.03-.18.04-.27.01-.09.02-.17.04-.25.01-.08.03-.14.06-.19.03-.2.14-.3.34-.3h1.06c.73,0,1.37-.06,1.9-.19.94-.2,1.71-.58,2.32-1.14.56-.51.98-1.17,1.25-1.98.13-.38.23-.75.3-1.1v-.06s.01-.02.04-.02l.04.04c.43.33.7.77.8,1.33ZM28.14,20.96c0,.05-.03.09-.09.11-.06.03-.12.01-.17-.04-.28-.3-.66-.46-1.14-.46-.51,0-.95.17-1.31.51-.37.34-.6.77-.7,1.27-.08.51.02.93.3,1.25.28.33.67.49,1.18.49.43,0,.85-.14,1.25-.42.05-.05.11-.06.17-.02.06.04.08.08.06.13l-.23,1.48c-.03.1-.08.17-.15.19-.61.18-1.08.27-1.41.27-.84,0-1.51-.22-2.01-.67-.51-.44-.82-.91-.95-1.39-.13-.48-.15-.92-.08-1.33.18-1.27.68-2.16,1.5-2.68.82-.52,1.68-.77,2.56-.74.51.05.92.14,1.25.27.15.05.21.15.19.3l-.23,1.44ZM26.12,12.68c.51,0,.86.13,1.06.38.18.23.24.54.19.95-.15.91-.71,1.37-1.67,1.37h-.46c-.1,0-.17.06-.19.19l-.15.99c-.03.1-.09.15-.19.15h-.72c-.08,0-.11-.04-.11-.11l.61-3.72c.02-.13.09-.19.19-.19h1.44ZM26.31,14.05c.02-.18,0-.3-.08-.38-.1-.1-.32-.15-.65-.15h-.11c-.05,0-.09.03-.12.08l-.15.99h.23c.53,0,.82-.18.88-.53ZM30.46,14.05c.1,0,.14.04.11.11l-.38,2.39c0,.1-.06.15-.19.15h-.61c-.1,0-.14-.05-.12-.15l.04-.19c-.25.28-.58.42-.99.42-.38,0-.67-.11-.88-.34-.23-.3-.32-.66-.27-1.06.08-.4.26-.74.55-1.01s.63-.4,1.01-.4c.43,0,.71.1.84.3l.04.04.04-.19c0-.05.04-.08.11-.08h.68ZM33.12,25.56h-1.71c-.08,0-.13-.04-.15-.11l-1.14-2.36h-.04l-.34,2.32c-.03.1-.09.15-.19.15h-1.37c-.1,0-.14-.05-.11-.15l.95-6.12c.03-.1.09-.15.19-.15h2.36c.66,0,1.17.17,1.52.49.35.33.48.82.38,1.48-.05.3-.15.58-.29.84-.14.25-.33.47-.57.65-.24.18-.51.29-.82.34l1.45,2.43c.1.13.06.19-.12.19ZM29.51,15.38c.03-.18-.01-.34-.11-.49-.13-.13-.29-.19-.49-.19-.43,0-.68.23-.76.68-.03.2.01.37.11.49.1.13.25.19.46.19.46,0,.72-.23.8-.68ZM30.27,22.03h.15c.79,0,1.22-.27,1.29-.8.05-.33,0-.54-.13-.65-.14-.1-.37-.15-.7-.15h-.23c-.08,0-.13.04-.15.11l-.23,1.48ZM34.14,14.05c.15,0,.19.06.11.19l-2.32,3.34c-.03.05-.08.08-.15.08h-.68c-.05,0-.09-.02-.11-.06-.03-.04-.03-.08,0-.13l.72-1.03-.76-2.24c-.05-.1-.01-.15.12-.15h.68c.1,0,.16.04.19.11l.38,1.37.99-1.41c.02-.05.08-.08.15-.08h.68ZM36,20.73l-.15.91h1.75c.1,0,.14.05.11.15l-.15,1.06c-.03.13-.1.19-.23.19h-1.48c-.15,0-.23.06-.23.19l-.15.91h1.82c.1,0,.14.05.11.15l-.15,1.06c-.03.13-.1.19-.23.19h-3.31c-.1,0-.14-.05-.11-.15l.95-6.08c.02-.13.1-.19.23-.19h3.31c.1,0,.14.05.11.15l-.15,1.06c-.03.13-.1.19-.23.19h-1.6c-.13,0-.2.06-.23.19ZM36.46,12.68c.51,0,.86.13,1.06.38.18.23.24.54.19.95-.15.91-.71,1.37-1.67,1.37h-.46c-.1,0-.17.06-.19.19l-.15,1.03c-.03.08-.08.11-.15.11h-.76c-.08,0-.11-.04-.11-.11l.61-3.72c.02-.13.09-.19.19-.19h1.44ZM36.65,14.05c.02-.18,0-.3-.08-.38-.1-.1-.32-.15-.65-.15h-.11c-.05,0-.09.03-.12.08l-.15.99h.23c.53,0,.82-.18.88-.53ZM40.79,14.05c.1,0,.14.04.11.11l-.34,2.39c-.03.1-.1.15-.23.15h-.61c-.1,0-.14-.05-.12-.15v-.19c-.23.28-.54.42-.95.42-.38,0-.67-.11-.87-.34-.23-.3-.32-.66-.27-1.06.05-.28.15-.53.3-.74.15-.21.33-.38.55-.49.21-.11.45-.17.7-.17.4,0,.68.1.84.3l.04.04.04-.19c0-.05.04-.08.11-.08h.68ZM38.82,19.33c.02-.13.1-.19.23-.19h2.17c.91,0,1.64.31,2.18.93.54.62.74,1.38.59,2.28-.15.9-.6,1.66-1.33,2.28-.74.62-1.55.93-2.43.93h-2.24c-.1,0-.14-.05-.12-.15l.95-6.08ZM39.84,15.38c.03-.18-.01-.34-.11-.49-.13-.13-.29-.19-.49-.19-.43,0-.68.23-.76.68-.03.2.01.37.11.49.1.13.25.19.46.19.46,0,.72-.23.8-.68ZM39.73,24.15h.38c.53,0,.99-.15,1.39-.46.39-.3.64-.75.74-1.33.1-.58,0-1.03-.29-1.35-.29-.32-.72-.48-1.27-.48h-.27c-.08,0-.11.04-.11.11l-.57,3.5ZM41.63,12.79c0-.08.04-.11.11-.11h.68c.08,0,.11.05.11.15l-.61,3.72c-.03.1-.09.15-.19.15h-.61c-.1,0-.14-.04-.11-.11l.61-3.8ZM45.43,25.56h-1.29c-.1,0-.15-.05-.15-.15l.99-6.08c0-.13.08-.19.23-.19h1.29c.1,0,.15.05.15.15l-.95,6.08c-.03.13-.11.19-.27.19ZM49,25.56h-1.33c-.1,0-.14-.05-.11-.15l.76-4.86h-1.22c-.13,0-.18-.05-.15-.15l.15-1.06c.03-.13.11-.19.27-.19h4.07c.1,0,.14.05.11.15l-.15,1.06c-.03.13-.1.19-.23.19h-1.18l-.76,4.83c-.03.13-.1.19-.23.19Z"/>
    </g>
  </g>
</svg>