<?xml version="1.0" encoding="UTF-8"?>
<svg id="Capa_2" data-name="Capa 2" xmlns="http://www.w3.org/2000/svg" viewBox="0 0 60 40">
  <defs>
    <style>
      .cls-1 {
        fill: #233551;
      }

      .cls-2 {
        fill: #fff;
      }
    </style>
  </defs>
  <g id="Capa_1-2" data-name="Capa 1">
    <g>
      <rect class="cls-1" width="60" height="40" rx="5" ry="5"/>
      <path class="cls-2" d="M16.87,15.42c.17.32.26.72.26,1.18,0,1.06-.46,1.91-1.39,2.55-.92.64-2.23.96-3.9.96h-.92l-.63,2.89h-2.44l2.07-8.92h3.4c.62,0,1.16.04,1.63.11.37.07.76.23,1.18.48.32.17.57.42.74.74ZM13.9,18.01c.42-.27.63-.68.63-1.22,0-.35-.14-.59-.41-.74-.3-.2-.69-.3-1.18-.3h-.93l-.7,2.7h.89c.74,0,1.31-.15,1.7-.44ZM20.42,22.93l.15-.7c-.12.07-.29.19-.52.33-.2.1-.38.2-.55.3-.22.07-.44.14-.67.18-.22.05-.52.07-.89.07-.57,0-1.04-.15-1.41-.46-.37-.31-.56-.71-.56-1.2,0-.54.12-1,.37-1.37.27-.37.67-.67,1.18-.89.47-.2,1.05-.35,1.74-.44.64-.07,1.37-.14,2.18-.19,0-.02.01-.06.04-.11v-.19c0-.3-.14-.5-.41-.61-.27-.11-.69-.17-1.26-.17-.4.02-.8.09-1.22.19l-1.22.3.33-1.59c.22-.05.63-.12,1.22-.22.57-.07,1.12-.11,1.66-.11,1.11,0,1.92.14,2.44.41.52.27.78.69.78,1.26,0,.05-.01.16-.04.33,0,.1-.01.21-.04.33l-1.11,4.55h-2.22ZM20.79,21.19l.37-1.41c-.42.02-.8.06-1.15.11-.3.02-.59.09-.89.19-.25.1-.44.23-.57.39-.14.16-.2.36-.2.61,0,.22.09.38.26.48.17.1.43.15.78.15.25,0,.48-.05.7-.15.25-.1.48-.22.7-.37ZM23.45,25.48l1.89-2.59-1.18-6.59h2.33l.63,4.4,2.74-4.4h2.33l-6.07,9.18h-2.66ZM40.36,15.42c.17.32.26.72.26,1.18,0,1.06-.47,1.91-1.41,2.55-.89.62-2.11.92-3.66.92h-1.15l-.7,2.92h-2.44l2.18-8.92h3.4c.44,0,.96.06,1.55.18.47.07.86.21,1.18.41.32.17.58.42.78.74ZM37.4,18.01c.42-.27.63-.68.63-1.22,0-.35-.14-.59-.41-.74-.32-.2-.7-.3-1.15-.3h-1.04l-.63,2.7h.85c.74,0,1.32-.15,1.74-.44ZM44.25,22.93l.18-.7c-.12.07-.3.19-.52.33-.17.1-.36.2-.55.3-.22.07-.44.14-.67.18-.22.05-.51.07-.85.07-.59,0-1.07-.15-1.44-.46-.37-.31-.55-.71-.55-1.2,0-.54.12-1,.37-1.37.27-.37.67-.65,1.18-.85.49-.22,1.07-.38,1.74-.48.67-.07,1.39-.14,2.18-.19,0-.05.01-.09.04-.11v-.19c0-.27-.14-.46-.41-.57-.27-.11-.68-.17-1.22-.17-.42,0-.84.05-1.26.15-.44.12-.78.22-1,.3h-.22l.33-1.59c.25-.05.67-.12,1.26-.22.54-.07,1.08-.11,1.63-.11,1.11,0,1.92.14,2.44.41.52.27.78.7.78,1.29v.3c-.02.12-.05.23-.07.33l-1.15,4.55h-2.22ZM44.69,21.19l.33-1.41c-.42.02-.8.06-1.15.11-.3.02-.59.09-.89.19-.25.07-.44.2-.59.37-.12.17-.18.38-.18.63s.09.41.26.48c.17.1.43.15.78.15.25,0,.48-.05.7-.15.25-.1.49-.22.74-.37ZM50.05,23.08h-2.37l2.37-9.29h2.18l-2.18,9.29Z"/>
    </g>
  </g>
</svg>