<svg xmlns="http://www.w3.org/2000/svg" width="156.473" height="51.185" viewBox="0 0 156.473 51.185">
  <g id="Grupo_155" data-name="Grupo 155" transform="translate(0 0)">
    <path id="Trazado_4" data-name="Trazado 4" d="M436.369,356.356a1.006,1.006,0,0,0-.815.431,1.722,1.722,0,0,0-.335,1.087,1.693,1.693,0,0,0,.353,1.113,1.087,1.087,0,0,0,.867.429,1,1,0,0,0,.816-.432,1.937,1.937,0,0,0-.018-2.2A1.085,1.085,0,0,0,436.369,356.356Z" transform="translate(-368.705 -345.466)" fill="#0f172a"/>
    <path id="Trazado_5" data-name="Trazado 5" d="M447.611,356.4a3.632,3.632,0,0,0-.389.029q.033.658.034,1.374,0,.786.033,1.557a2.127,2.127,0,0,0,.427.043,1.244,1.244,0,0,0,1.047-.439,1.692,1.692,0,0,0,.339-1.07,1.588,1.588,0,0,0-.367-1.063A1.4,1.4,0,0,0,447.611,356.4Z" transform="translate(-373.588 -345.482)" fill="#0f172a"/>
    <path id="Trazado_6" data-name="Trazado 6" d="M465.677,356.329a2.623,2.623,0,0,0-.493.049q.037.62.037,1.407c.055,0,.118.007.19.007q1.2,0,1.2-.76Q466.611,356.329,465.677,356.329Z" transform="translate(-380.894 -345.455)" fill="#0f172a"/>
    <path id="Trazado_7" data-name="Trazado 7" d="M458.562,356.312a19.155,19.155,0,0,1-.582,1.834h1.2a18.586,18.586,0,0,1-.562-1.834Z" transform="translate(-377.964 -345.448)" fill="#0f172a"/>
    <path id="Trazado_8" data-name="Trazado 8" d="M406.231,356.312a19.155,19.155,0,0,1-.582,1.834h1.2a18.657,18.657,0,0,1-.562-1.834Z" transform="translate(-356.677 -345.448)" fill="#0f172a"/>
    <path id="Trazado_9" data-name="Trazado 9" d="M428.932,356.334a2.867,2.867,0,0,0-.546.046q.037.509.037,1.327c.12,0,.222.007.306.007q1.045,0,1.045-.727Q429.773,356.335,428.932,356.334Z" transform="translate(-365.926 -345.457)" fill="#0f172a"/>
    <path id="Trazado_10" data-name="Trazado 10" d="M421.1,356.4a3.631,3.631,0,0,0-.388.029q.033.658.033,1.374,0,.786.034,1.557a2.125,2.125,0,0,0,.427.043,1.245,1.245,0,0,0,1.048-.439,1.7,1.7,0,0,0,.339-1.07,1.585,1.585,0,0,0-.368-1.063A1.4,1.4,0,0,0,421.1,356.4Z" transform="translate(-362.806 -345.482)" fill="#0f172a"/>
    <path id="Trazado_11" data-name="Trazado 11" d="M482.151,356.356a1,1,0,0,0-.814.431,1.715,1.715,0,0,0-.336,1.087,1.7,1.7,0,0,0,.354,1.113,1.084,1.084,0,0,0,.866.429,1,1,0,0,0,.815-.432,1.937,1.937,0,0,0-.017-2.2A1.083,1.083,0,0,0,482.151,356.356Z" transform="translate(-387.329 -345.466)" fill="#0f172a"/>
    <path id="Trazado_12" data-name="Trazado 12" d="M472.322,356.329a2.617,2.617,0,0,0-.494.049q.037.62.036,1.407c.055,0,.119.007.191.007q1.2,0,1.2-.76Q473.254,356.329,472.322,356.329Z" transform="translate(-383.597 -345.455)" fill="#0f172a"/>
    <path id="Trazado_13" data-name="Trazado 13" d="M455.886,382.313a3.23,3.23,0,0,0-2.389,1.029,4.2,4.2,0,0,0,0,5.458,3.284,3.284,0,0,0,4.778,0,4.194,4.194,0,0,0,0-5.458A3.233,3.233,0,0,0,455.886,382.313Z" transform="translate(-375.73 -356.025)" fill="#0f172a"/>
    <path id="Trazado_14" data-name="Trazado 14" d="M436.734,382.313a3.232,3.232,0,0,0-2.39,1.029,4.2,4.2,0,0,0,0,5.458,3.285,3.285,0,0,0,4.778,0,4.194,4.194,0,0,0,0-5.458A3.232,3.232,0,0,0,436.734,382.313Z" transform="translate(-367.939 -356.025)" fill="#0f172a"/>
    <path id="Trazado_15" data-name="Trazado 15" d="M527.712,374.938h-3.27v5.31h3.27a2.527,2.527,0,0,0,1.975-.829,2.613,2.613,0,0,0,0-3.652A2.523,2.523,0,0,0,527.712,374.938Z" transform="translate(-405 -353.025)" fill="#0f172a"/>
    <path id="Trazado_16" data-name="Trazado 16" d="M549.435,389.336a1.853,1.853,0,0,0-.722,1.445,1.393,1.393,0,0,0,.658,1.211,2.628,2.628,0,0,0,1.507.445,3.18,3.18,0,0,0,2.2-.9,2.8,2.8,0,0,0,.987-2.134,3.851,3.851,0,0,0-2.484-.68A3.232,3.232,0,0,0,549.435,389.336Z" transform="translate(-414.873 -358.631)" fill="#0f172a"/>
    <path id="Trazado_17" data-name="Trazado 17" d="M500.781,382.313a2.8,2.8,0,0,0-1.879.679,3.467,3.467,0,0,0-1.094,1.827h6.031a2.777,2.777,0,0,0-.818-1.7A2.918,2.918,0,0,0,500.781,382.313Z" transform="translate(-394.165 -356.025)" fill="#0f172a"/>
    <path id="Trazado_18" data-name="Trazado 18" d="M474.954,382.313a3.106,3.106,0,0,0-2.336,1.029,4.3,4.3,0,0,0,0,5.458,3.187,3.187,0,0,0,4.682.011,4.366,4.366,0,0,0,0-5.479A3.111,3.111,0,0,0,474.954,382.313Z" transform="translate(-383.521 -356.025)" fill="#0f172a"/>
    <path id="Trazado_19" data-name="Trazado 19" d="M472.652,338H330.013a6.918,6.918,0,0,0-6.918,6.917v37.35a6.919,6.919,0,0,0,6.918,6.918H472.652a6.918,6.918,0,0,0,6.916-6.918v-37.35A6.917,6.917,0,0,0,472.652,338Zm-62.173,10.276h.572c.08,0,.237,0,.467-.01s.429-.01.6-.01a1.874,1.874,0,0,1,1.054.282.957.957,0,0,1,.431.858,1.282,1.282,0,0,1-.583,1.16,2.6,2.6,0,0,1-1.431.374,2.2,2.2,0,0,1-.22-.007q0,.618.037,1.63h-.924q.042-.949.042-2.237Q410.521,349.133,410.478,348.274Zm-8.052,2.176a16.515,16.515,0,0,0,.767-2.176h1.242a18.18,18.18,0,0,0,.7,2.144,18.8,18.8,0,0,1,.7,2.134h-1.052a6.886,6.886,0,0,0-.3-1.229h-1.517a6.382,6.382,0,0,0-.309,1.229h-.988Q401.659,352.425,402.426,350.45Zm-6.534-2.176h.575c.094,0,.235,0,.421-.01s.308-.01.364-.01a2.214,2.214,0,0,1,1.72.591,2.043,2.043,0,0,1,.535,1.42,2.425,2.425,0,0,1-.6,1.63,2.091,2.091,0,0,1-1.676.7q-.486,0-1.341-.04.042-.991.042-2.237Q395.935,349.118,395.892,348.274Zm-2.078,0h.93q-.044.828-.043,2.041,0,1.239.043,2.237h-.93q.042-1.018.042-2.237Q393.856,349.115,393.814,348.274Zm-4.495.565a2,2,0,0,1,1.528-.664,1.935,1.935,0,0,1,1.453.607,2.149,2.149,0,0,1,.585,1.551,2.365,2.365,0,0,1-.618,1.673,2.007,2.007,0,0,1-1.528.663,1.929,1.929,0,0,1-1.453-.61,2.149,2.149,0,0,1-.585-1.548A2.364,2.364,0,0,1,389.319,348.839Zm-9.151-.565h.575c.094,0,.235,0,.421-.01s.308-.01.364-.01a2.214,2.214,0,0,1,1.72.591,2.045,2.045,0,0,1,.534,1.42,2.424,2.424,0,0,1-.6,1.63,2.091,2.091,0,0,1-1.676.7q-.487,0-1.341-.04.042-.991.042-2.237Q380.211,349.118,380.168,348.274Zm-4.675,0h.976a6.18,6.18,0,0,0,.812,1.39,8.141,8.141,0,0,1,.992,1.752h.049a12.362,12.362,0,0,1-.079-1.315q0-.892-.046-1.828h.823q-.047.816-.046,2.041t.046,2.237h-.813a8.1,8.1,0,0,0-.9-1.423,7.858,7.858,0,0,1-1.078-1.857h-.052a11.77,11.77,0,0,1,.082,1.3q0,.811.045,1.977h-.808q.05-1.018.049-2.237Q375.542,349.115,375.493,348.274Zm-4.112,2.176a16.523,16.523,0,0,0,.768-2.176h1.242a18.234,18.234,0,0,0,.695,2.144,18.867,18.867,0,0,1,.7,2.134h-1.051a7.011,7.011,0,0,0-.3-1.229h-1.519a6.411,6.411,0,0,0-.309,1.229h-.99Q370.615,352.425,371.382,350.45Zm-34.653-1.514q9.978,5.591,19.959,11.175c.306.171.3.267.063.5q-2.232,2.2-4.439,4.415c-.158.161-.256.252-.469.034q-7.937-8.1-15.89-16.177c-.044-.045-.081-.1-.171-.21A1.781,1.781,0,0,1,336.728,348.936ZM334.681,381.8a1.981,1.981,0,0,1-.769-1.682q0-4.316-.005-8.63,0-3.05,0-6.1h.009q0-7.286,0-14.571a2.187,2.187,0,0,1,.537-1.59c.164-.174.282-.222.484-.016q4.9,5,9.819,9.988,3.181,3.233,6.37,6.458c.206.208.225.317.005.534q-7.812,7.769-15.6,15.561A.536.536,0,0,1,334.681,381.8ZM356.1,371.25q-9.3,5.089-18.584,10.194a2.491,2.491,0,0,0-.25.183q7.242-7.321,14.475-14.648c.3-.3.438-.263.707.017q1.835,1.91,3.712,3.782C356.384,371,356.4,371.087,356.1,371.25Zm8.077-4.508a8.264,8.264,0,0,1-.924.564c-1.873,1.036-3.753,2.062-5.622,3.1a.421.421,0,0,1-.612-.081q-2-2.063-4.023-4.094c-.2-.2-.2-.306,0-.5q2.36-2.324,4.7-4.673a.375.375,0,0,1,.544-.076c1.85,1.049,3.711,2.083,5.567,3.123a1.7,1.7,0,0,1,1.046,1.418A1.521,1.521,0,0,1,364.181,366.742Zm19.66,4.594a7.366,7.366,0,0,1-5.586,2.252,7.943,7.943,0,1,1,0-15.885,7.834,7.834,0,0,1,3.122.637,6.26,6.26,0,0,1,2.378,1.7l-1.338,1.338a5.131,5.131,0,0,0-4.163-1.806,6.074,6.074,0,1,0,4.248,10.449,4.772,4.772,0,0,0,1.273-3.079h-5.522v-1.827h7.37a6.559,6.559,0,0,1,.106,1.147A6.857,6.857,0,0,1,383.841,371.336Zm1.754-20.489q0,.845.03,1.706h-.914q.042-.991.042-2.237,0-1.2-.042-2.041h.568c.066,0,.2,0,.413-.01s.4-.01.58-.01q1.508,0,1.509,1.032a1.156,1.156,0,0,1-.861,1.14v.05a1.029,1.029,0,0,1,.581.517,11.48,11.48,0,0,1,.673,1.558H387.2a6.551,6.551,0,0,0-.584-1.436.77.77,0,0,0-.658-.273C385.833,350.843,385.71,350.845,385.595,350.847Zm10.139,21.159a5.46,5.46,0,0,1-7.688,0,5.955,5.955,0,0,1,0-7.921,5.46,5.46,0,0,1,7.688,0,5.957,5.957,0,0,1,0,7.921Zm11.361,0a5.46,5.46,0,0,1-7.687,0,5.954,5.954,0,0,1,0-7.921,5.459,5.459,0,0,1,7.687,0,5.957,5.957,0,0,1,0,7.921Zm.55-21.077a2.2,2.2,0,0,1-.22-.007q0,.618.036,1.63h-.924q.044-.949.042-2.237,0-1.183-.042-2.041h.572c.081,0,.237,0,.467-.01s.43-.01.6-.01a1.877,1.877,0,0,1,1.055.282.957.957,0,0,1,.431.858,1.28,1.28,0,0,1-.584,1.16A2.587,2.587,0,0,1,407.644,350.929Zm12.065,21.788a5.184,5.184,0,0,1-1.551,4.067,5.459,5.459,0,0,1-3.779,1.391,4.718,4.718,0,0,1-3.017-.924,5.41,5.41,0,0,1-1.677-2.114l1.784-.743a2.916,2.916,0,0,0,1.094,1.422,3.023,3.023,0,0,0,1.816.574,3.344,3.344,0,0,0,2.537-.966,3.637,3.637,0,0,0,.924-2.623v-1h-.085a4,4,0,0,1-1.444,1.274,4.325,4.325,0,0,1-2.1.51,4.579,4.579,0,0,1-3.483-1.593,6.056,6.056,0,0,1,0-7.9,4.58,4.58,0,0,1,3.483-1.593,4.325,4.325,0,0,1,2.1.51,3.99,3.99,0,0,1,1.444,1.275h.085v-1.445h1.869v9.876Zm-.284-20.71a2,2,0,0,1-1.528.663,1.928,1.928,0,0,1-1.452-.61,2.144,2.144,0,0,1-.584-1.548,2.357,2.357,0,0,1,.618-1.673,2,2,0,0,1,1.528-.664,1.931,1.931,0,0,1,1.452.607,2.142,2.142,0,0,1,.585,1.551A2.355,2.355,0,0,1,419.426,352.007Zm4.084,21.24h-1.953v-15.2h1.953Zm.988-20.7h-.811a8.058,8.058,0,0,0-.9-1.423,7.844,7.844,0,0,1-1.078-1.857h-.052a11.5,11.5,0,0,1,.082,1.3q0,.811.046,1.977h-.809q.051-1.018.05-2.237,0-1.2-.05-2.041h.976a6.177,6.177,0,0,0,.812,1.39,8.168,8.168,0,0,1,.992,1.752h.05a12.347,12.347,0,0,1-.079-1.315q0-.892-.046-1.828h.822q-.046.816-.046,2.041T424.5,352.552Zm10.331,15.854H426.61a3.536,3.536,0,0,0,1.051,2.484,3.19,3.19,0,0,0,2.262.914,2.805,2.805,0,0,0,2.846-1.784l1.74.721a4.663,4.663,0,0,1-1.677,2.029,4.882,4.882,0,0,1-2.866.817,5.017,5.017,0,0,1-3.833-1.572,5.566,5.566,0,0,1-1.477-3.97,5.729,5.729,0,0,1,1.434-3.908,4.656,4.656,0,0,1,3.664-1.635,4.8,4.8,0,0,1,3.705,1.508,5.718,5.718,0,0,1,1.391,4.035Zm14.281-2.6a4.8,4.8,0,0,1-3.345,1.285h-3.228v6.158h-1.954v-15.2h5.182a4.808,4.808,0,0,1,3.345,1.285,4.419,4.419,0,0,1,0,6.477Zm4.641,7.443H451.8v-15.2h1.954Zm10.405,0h-1.869V371.8H462.2a3.834,3.834,0,0,1-3.421,1.784,4.109,4.109,0,0,1-2.771-.956,3.163,3.163,0,0,1-1.115-2.527,3.122,3.122,0,0,1,1.318-2.665,5.339,5.339,0,0,1,3.248-.966,5.592,5.592,0,0,1,2.825.637v-.3a2.32,2.32,0,0,0-.785-1.837,2.822,2.822,0,0,0-1.933-.69,3,3,0,0,0-1.539.4,2.082,2.082,0,0,0-.946,1.1l-1.784-.764a4.043,4.043,0,0,1,1.423-1.73,4.551,4.551,0,0,1,2.8-.8,4.814,4.814,0,0,1,3.313,1.168,4.172,4.172,0,0,1,1.316,3.292Zm4.248,4.587h-2.017l2.421-5.245-4.29-9.748h2.123l3.1,7.476h.043l3.015-7.476h2.123Z" transform="translate(-323.095 -337.998)" fill="#0f172a"/>
  </g>
</svg>
