<svg id="surface1" xmlns="http://www.w3.org/2000/svg" xmlns:xlink="http://www.w3.org/1999/xlink" width="149.567" height="31.796" viewBox="0 0 149.567 31.796">
  <defs>
    <clipPath id="clip-path">
      <path id="Trazado_5735" data-name="Trazado 5735" d="M550,0h23.491V31.8H550Zm0,0" transform="translate(-550)"/>
    </clipPath>
    <clipPath id="clip-path-2">
      <path id="Trazado_5737" data-name="Trazado 5737" d="M0,1H24.069V32.567H0ZM0,1" transform="translate(0 -1)"/>
    </clipPath>
  </defs>
  <g id="Grupo_4257" data-name="Grupo 4257" transform="translate(126.076)" clip-path="url(#clip-path)">
    <path id="Trazado_5734" data-name="Trazado 5734" d="M550.879,0l.249.248q8.3,7.68,16.6,15.362V.9h6.441V31.793c-5.616-5.2-11.231-10.49-16.931-15.692V30.72h-6.36V0" transform="translate(-550.677 0.003)"/>
  </g>
  <g id="Grupo_4258" data-name="Grupo 4258" transform="translate(0 0.229)" clip-path="url(#clip-path-2)">
    <path id="Trazado_5736" data-name="Trazado 5736" d="M2.23,6.1A10.763,10.763,0,0,1,9.993,1.808c4.542-.414,9.5.33,13.049,3.468C21.556,6.68,19.987,8,18.5,9.406a9.143,9.143,0,0,0-6.111-2.23,4.735,4.735,0,0,0-4.294,1.9,2.526,2.526,0,0,0,.5,3.221,16.78,16.78,0,0,0,5.2,2.478,20.64,20.64,0,0,1,7.433,3.551,7.779,7.779,0,0,1,1.322,10.324,11.551,11.551,0,0,1-8.424,4.294,22.764,22.764,0,0,1-8.507-.989A20.574,20.574,0,0,1,0,28.9c1.486-1.4,3.055-2.807,4.542-4.211a12.476,12.476,0,0,0,9.085,2.643,4.178,4.178,0,0,0,3.386-2.4,2.772,2.772,0,0,0-1.486-3.056c-3.3-1.9-7.186-2.311-10.407-4.377a8.574,8.574,0,0,1-3.8-4.707A7.9,7.9,0,0,1,2.23,6.1" transform="translate(0 -1.542)"/>
  </g>
  <path id="Trazado_5738" data-name="Trazado 5738" d="M152.4,4.32h6.442V16.13h13.049V4.32h6.525v29.9h-6.525V21H158.844V34.217H152.4V4.32" transform="translate(-117.467 -3.33)"/>
  <path id="Trazado_5739" data-name="Trazado 5739" d="M321.016,4.32h21.969V9.11H327.376v7.1h15.361v4.707H327.376V29.1h15.609v5.119H321.016V4.32" transform="translate(-247.43 -3.33)"/>
  <path id="Trazado_5740" data-name="Trazado 5740" d="M466.934,4.32h6.443v29.9h-6.443V4.32" transform="translate(-359.899 -3.33)"/>
</svg>
