<svg id="TheHomeDepot" xmlns="http://www.w3.org/2000/svg" width="58.997" height="59" viewBox="0 0 58.997 59">
  <path id="Trazado_5741" data-name="Trazado 5741" d="M.532.834H59.523V59.825H.532Z" transform="translate(-0.529 -0.832)" fill="#fff"/>
  <path id="Trazado_5742" data-name="Trazado 5742" d="M.524.827H37.537c2.98,0,5.959-.006,8.933.006-.824.836-1.667,1.666-2.5,2.5.328.347.675.669,1,1.01a5.226,5.226,0,0,1,2.54-1,4.924,4.924,0,0,1,2.447.465,3.089,3.089,0,0,0,.892.353.852.852,0,0,0,.675-.589.513.513,0,0,0-.149-.576c-.719-.725-1.444-1.437-2.156-2.162,3.432-.019,6.864,0,10.289-.006,0,3.345.006,6.7,0,10.048-.706-.694-1.394-1.4-2.094-2.094a.671.671,0,0,0-.743-.174.8.8,0,0,0-.4.39,1.6,1.6,0,0,0,.211,1.034,5.366,5.366,0,0,1,.5,2.961,4.816,4.816,0,0,1-.706,1.951c-.1.142-.192.291-.279.44.359.309.663.681,1.028.985.818-.842,1.66-1.666,2.49-2.5q0,8.391,0,16.781c-.161.056-.341.167-.508.087a3.918,3.918,0,0,1-.576-.533c-2.007-1.995-4-4.008-6.009-6-.8.8-1.586,1.6-2.4,2.385.428.483.9.91,1.351,1.375q2.416,2.416,4.838,4.832a1.533,1.533,0,0,1,.371.453c.025.2-.118.378-.173.564a.37.37,0,0,0,.322.483.589.589,0,0,0,.508-.235c.756-.762,1.518-1.518,2.273-2.274V59.818H31.479c.719-.718,1.437-1.431,2.156-2.15q-3.668-3.659-7.328-7.327c-.8.767-1.568,1.567-2.361,2.341a1.644,1.644,0,0,0-.433.576.425.425,0,0,0,.4.458c.2-.025.365-.155.564-.2.173-.012.31.124.433.236,1.45,1.462,2.906,2.912,4.361,4.367.365.384.762.731,1.1,1.127.155.173.05.4-.037.57H13.564l3.958-3.958a1.468,1.468,0,0,0,.539-.867.692.692,0,0,0-.78-.743c-.347.068-.632.341-.991.341a.969.969,0,0,1-.558-.334Q11,49.535,6.285,44.809a1.661,1.661,0,0,1-.539-.719c-.012-.359.242-.65.335-.979a.694.694,0,0,0-.694-.836,1.183,1.183,0,0,0-.749.39C3.275,44.047,1.887,45.41.524,46.791Q.515,23.812.524.827" transform="translate(-0.521 -0.825)" fill="#f96302"/>
  <path id="Trazado_5743" data-name="Trazado 5743" d="M85.591,13.671c.056-.062.155-.118.211-.025q6.48,6.472,12.947,12.948-2.272,2.27-4.54,4.545a1.2,1.2,0,0,1-.713.36.685.685,0,0,1-.725-.694c.013-.378.334-.669.341-1.053a.865.865,0,0,0-.328-.589q-4.8-4.794-9.6-9.6c-.18-.173-.378-.39-.65-.371-.4.006-.706.378-1.115.334a.674.674,0,0,1-.545-.372.9.9,0,0,1,.229-.985q2.249-2.249,4.491-4.5m6.22,1.257a.674.674,0,0,1,.638-.4,1.284,1.284,0,0,1,.737.483q1.857,1.864,3.717,3.723a1.547,1.547,0,0,1,.569.793.705.705,0,0,1-.632.706,1.638,1.638,0,0,1-.793-.285,3.2,3.2,0,0,0-1.747-.527,2.214,2.214,0,0,0-.923.254c-.341-.365-.731-.694-1.053-1.072a3.137,3.137,0,0,0,.248-.843A3.3,3.3,0,0,0,92,15.876a1.115,1.115,0,0,1-.192-.948m-27.3,3.283c.669-.706,1.375-1.369,2.044-2.069.638.619,1.257,1.245,1.883,1.871.2.2.019.533-.211.613-.192.025-.359-.105-.533-.167a2.408,2.408,0,0,0-2.168-.006,2.4,2.4,0,0,1-.5.254c-.186-.149-.341-.334-.514-.5m-.421.4c.91.88,1.79,1.79,2.688,2.676C68.184,22.684,69.584,24.1,71,25.5q-1.207,1.221-2.428,2.428a.432.432,0,0,1-.663.037c-.2-.211.019-.471.081-.688.074-.161-.056-.3-.161-.415Q65.392,24.436,62.968,22a2.281,2.281,0,0,0-.452-.4c-.248-.056-.44.167-.681.18a.38.38,0,0,1-.334-.4.634.634,0,0,1,.2-.384c.793-.8,1.6-1.586,2.385-2.4m3.233.991a.366.366,0,0,1,.279-.483c.161-.025.291.1.4.2.669.669,1.338,1.344,2.013,2.007.118.13.285.248.3.44a.338.338,0,0,1-.359.359c-.26,0-.458-.2-.694-.291a1.247,1.247,0,0,0-1.109.013c-.18-.18-.359-.365-.545-.533a1.65,1.65,0,0,0,.087-.849,5.389,5.389,0,0,0-.372-.867m11.863.483a1.078,1.078,0,0,1,.613-.322.694.694,0,0,1,.768.762c-.056.372-.365.669-.341,1.06a1.528,1.528,0,0,0,.464.65q4.749,4.739,9.484,9.478c.174.155.347.359.595.359.372,0,.657-.279,1.01-.341a.7.7,0,0,1,.762.744,1.192,1.192,0,0,1-.384.712c-1.592,1.586-3.178,3.184-4.77,4.77a1.132,1.132,0,0,1-.768.39.705.705,0,0,1-.7-.595c-.044-.434.359-.756.347-1.19a.946.946,0,0,0-.3-.52q-4.172-4.162-8.338-8.332c2.3,4.268,4.615,8.524,6.913,12.792a1.583,1.583,0,0,1,.1.2c-.167.155-.328.322-.489.489-4.6-2.267-9.2-4.559-13.8-6.833a7.155,7.155,0,0,0-2.261-.879c-.273-.038-.458.186-.657.328a.813.813,0,0,1-.731.18.73.73,0,0,1-.421-.824,1.357,1.357,0,0,1,.378-.57c1.487-1.48,2.967-2.967,4.454-4.441,2.316,1.134,4.639,2.242,6.963,3.376a1.539,1.539,0,0,1,.223.186c.037-.044.068-.087.105-.13l-.087.012c-1.22-2.323-2.5-4.615-3.723-6.938,1.536-1.524,3.054-3.054,4.584-4.578m-8.134,1.047a.365.365,0,0,1,.576-.056c.626.632,1.264,1.264,1.9,1.9q-1.059,1.069-2.131,2.125a3.835,3.835,0,0,1-.5-.551,3.049,3.049,0,0,0,.477-1.109,2.8,2.8,0,0,0-.229-1.679c-.068-.2-.217-.427-.087-.626m-10.4.929a.955.955,0,0,1,.44-.31.357.357,0,0,1,.427.272c.044.217-.118.4-.161.607-.025.167.111.285.21.4q2.481,2.48,4.956,4.955a.909.909,0,0,0,.39.273,4.588,4.588,0,0,0,.558-.192.366.366,0,0,1,.378.452.866.866,0,0,1-.272.409q-1.208,1.208-2.416,2.41a.61.61,0,0,1-.539.242.469.469,0,0,1-.26-.26c-.062-.273.229-.5.161-.768a1.612,1.612,0,0,0-.229-.272c-.756-.75-1.505-1.512-2.267-2.261q-.4.407-.805.805c-.186-.18-.372-.359-.545-.551.272-.266.539-.539.812-.805-.669-.656-1.332-1.326-1.995-1.989a2.541,2.541,0,0,0-.434-.384c-.3-.1-.595.328-.886.093A.437.437,0,0,1,58.2,24.5c.811-.824,1.635-1.629,2.447-2.447" transform="translate(-43.037 -10.267)" fill="#fff"/>
  <path id="Trazado_5744" data-name="Trazado 5744" d="M30.048,58.235a.386.386,0,0,1,.551.167c.087.254-.142.471-.149.719-.006.13.1.223.18.31Q33.2,62,35.772,64.572c.309.334.706-.242,1.041.006a.454.454,0,0,1-.043.675c-.805.812-1.617,1.611-2.416,2.422a1.206,1.206,0,0,1-.44.328.367.367,0,0,1-.464-.279c-.037-.248.186-.44.173-.682a.71.71,0,0,0-.173-.272q-2.436-2.427-4.863-4.863a1.582,1.582,0,0,0-.489-.4c-.223-.012-.409.155-.626.18a.359.359,0,0,1-.353-.34.63.63,0,0,1,.248-.477q1.208-1.208,2.41-2.416a1.568,1.568,0,0,1,.272-.223m-4.479,4.429c.372-.359.731-.731,1.1-1.1.651.632,1.288,1.288,1.939,1.927a1.367,1.367,0,0,1,.309.4.444.444,0,0,1-.576.5c-.3-.136-.545-.378-.836-.539a2.575,2.575,0,0,0-1.641-.427c-.167-.173-.353-.335-.5-.52a.953.953,0,0,1,.2-.242m-2.7,2.7c.694-.681,1.375-1.369,2.063-2.057q1.953,1.962,3.915,3.915c.719.712,1.419,1.437,2.144,2.137.2.229.477.037.7-.044a.355.355,0,0,1,.477.334.616.616,0,0,1-.2.409c-.842.836-1.673,1.672-2.509,2.509a.6.6,0,0,1-.44.223.343.343,0,0,1-.359-.353c.013-.2.167-.359.167-.558.013-.167-.13-.273-.229-.384-1.976-1.964-3.934-3.946-5.916-5.9.062-.081.118-.155.186-.229m46.491-.607q1.152,1.134,2.286,2.286a.454.454,0,0,1-.254.737c-.3.043-.527-.192-.756-.347a2.966,2.966,0,0,0-2.106-.688,4.7,4.7,0,0,1-.57-.595c.477-.458.936-.929,1.4-1.394M22.236,66.015c.229.087.372.347.558.508a2.8,2.8,0,0,0,.644,1.958,2.785,2.785,0,0,1,.334.551.436.436,0,0,1-.458.527c-.155,0-.26-.13-.359-.223-.675-.682-1.356-1.35-2.032-2.032.446-.421.861-.873,1.313-1.289m13.783,3.494a7.613,7.613,0,0,1,3.841-.18,11.223,11.223,0,0,1,5.588,3.289,10.942,10.942,0,0,1,3.085,5.519,7.469,7.469,0,0,1-.161,3.506A8.5,8.5,0,0,1,46.7,84.692c-.322-.341-.675-.657-.985-1a2.52,2.52,0,0,1,.137-.471,1.55,1.55,0,0,0-.415-1.555q-4.59-4.6-9.193-9.2a1.666,1.666,0,0,0-1.034-.545,2.082,2.082,0,0,0-.96.186c-.124.068-.2-.086-.285-.149-.248-.266-.521-.508-.768-.78,0-.019-.006-.056-.006-.074a8.255,8.255,0,0,1,2.831-1.592m8.35-.341a5.625,5.625,0,0,1,.811.372c1,.483,1.988.985,2.992,1.474a1.131,1.131,0,0,1,.242.18c.842.855,1.691,1.7,2.54,2.546a4.408,4.408,0,0,0,1.66,1.1,2.016,2.016,0,0,0,1.375.012,1.142,1.142,0,0,1,.7-.087.7.7,0,0,1,.427.582,1.4,1.4,0,0,1-.464.861q-1.137,1.152-2.292,2.286a1.355,1.355,0,0,1-.725.409.636.636,0,0,1-.688-.768,2.833,2.833,0,0,0,.211-1.233,3.88,3.88,0,0,0-.948-1.871c-1.679-1.685-3.364-3.364-5.048-5.055-.26-.273-.545-.52-.793-.811m18.893,1.685c.465-.465.935-.929,1.4-1.4.2.167.384.365.576.551a2.714,2.714,0,0,0,.452,1.753c.167.3.409.551.558.861a.556.556,0,0,1-.031.464,7.964,7.964,0,0,1,2.013,1.958,5.154,5.154,0,0,1,1.041,3.042,4.472,4.472,0,0,1-1.109,2.843,5.891,5.891,0,0,1-.545-.564,1.838,1.838,0,0,0,.087-.681,1.509,1.509,0,0,0-.5-.713q-2.453-2.444-4.894-4.887a.974.974,0,0,0-.583-.328,1.459,1.459,0,0,0-.632.105c-.192-.179-.384-.372-.57-.558a4.339,4.339,0,0,1,2.992-1.1,4.96,4.96,0,0,1,1.239.18c-.5-.514-1.022-1-1.5-1.524M30.847,74.489A8.787,8.787,0,0,1,32.364,71.9c.316.322.651.632.96.96.062.2-.1.384-.13.582a1.531,1.531,0,0,0,.44,1.5q4.516,4.525,9.044,9.044a1.94,1.94,0,0,0,1.09.682,2.317,2.317,0,0,0,1.152-.211c.334.334.669.663,1,1a8.462,8.462,0,0,1-2.484,1.493,7.551,7.551,0,0,1-4.318.3A11.366,11.366,0,0,1,33.5,83.868a10.975,10.975,0,0,1-2.955-5.321,7.426,7.426,0,0,1,.3-4.057M59,76.28a4.443,4.443,0,0,1,1.109-2.546c.179.186.372.372.557.558a1.284,1.284,0,0,0-.111.694,1.028,1.028,0,0,0,.328.527c1.635,1.629,3.258,3.264,4.894,4.894a1.615,1.615,0,0,0,.65.483,1.341,1.341,0,0,0,.743-.093c.186.186.378.372.558.57a4.448,4.448,0,0,1-2.781,1.1,4.966,4.966,0,0,1-2.806-.83,7.188,7.188,0,0,1-1.611-1.388,3.055,3.055,0,0,1-.174,2.218A7.17,7.17,0,0,1,58.989,84.2c-.186-.186-.378-.378-.57-.564a1.048,1.048,0,0,0,.167-.873A2.464,2.464,0,0,0,57.992,82Q57.3,81.3,56.6,80.6a1.648,1.648,0,0,0-.954-.57,1.052,1.052,0,0,0-.626.2c-.192-.186-.378-.378-.57-.564a4.842,4.842,0,0,1,2.682-1.66,2.877,2.877,0,0,1,2.422.849A4.8,4.8,0,0,1,59,76.28M26.349,78.442a1.132,1.132,0,0,1,.688-.334.7.7,0,0,1,.7.836,3.931,3.931,0,0,0-.334.935,1.243,1.243,0,0,0,.471.706l9.54,9.54a.916.916,0,0,0,.527.3c.359,0,.638-.266.979-.347a.7.7,0,0,1,.8.7,1.16,1.16,0,0,1-.359.731l-4.8,4.8a1.152,1.152,0,0,1-.774.384.693.693,0,0,1-.688-.719c.038-.371.347-.669.353-1.053a1,1,0,0,0-.335-.564c-1.425-1.431-2.856-2.85-4.274-4.274-.056-.043-.13-.167-.211-.081-.5.477-.973.979-1.468,1.456-.334-.334-.669-.669-1-1.01q.721-.753,1.474-1.474c0-.025.007-.081.007-.106-1.344-1.319-2.664-2.657-4-3.989a1.648,1.648,0,0,0-.681-.5c-.39-.025-.694.279-1.059.347a.7.7,0,0,1-.737-.892,1.71,1.71,0,0,1,.545-.743c1.549-1.555,3.1-3.1,4.646-4.652m27.659,1.673c.743.694,1.444,1.437,2.174,2.149q2.082,2.091,4.175,4.181a.8.8,0,0,0,.322.217c.267.025.477-.235.744-.186a.4.4,0,0,1,.291.39c0,.242-.2.409-.353.57-.873.861-1.734,1.734-2.608,2.6a.427.427,0,0,1-.669-.13c-.173-.291.3-.6.05-.867q-2.7-2.686-5.383-5.383a2.1,2.1,0,0,0-.4-.348c-.266-.074-.477.149-.725.18a.4.4,0,0,1-.366-.384.722.722,0,0,1,.279-.526c.824-.818,1.648-1.642,2.466-2.459m-5.525,5.519c.737-.725,1.456-1.474,2.205-2.187.663.669,1.332,1.332,1.995,2,.223.217-.013.545-.242.644a.929.929,0,0,1-.453-.142,2.708,2.708,0,0,0-1.852-.254,3.647,3.647,0,0,0-1.09.508c-.186-.192-.371-.384-.564-.57M45.472,88.65c.855-.867,1.722-1.716,2.577-2.577,1.387,1.369,2.756,2.763,4.15,4.132,1.066,1.059,2.119,2.131,3.19,3.184-.83.855-1.685,1.685-2.515,2.533a1.243,1.243,0,0,1-.44.273c-.155-.056-.347-.111-.4-.285-.093-.291.211-.521.174-.805a2.731,2.731,0,0,0-.527-.607l-4.516-4.516a4.99,4.99,0,0,0-.805-.731c-.316-.062-.6.34-.9.124a.468.468,0,0,1,.012-.725m6.009-1.536a.386.386,0,0,1,.4-.508.667.667,0,0,1,.3.2c.65.657,1.307,1.3,1.952,1.958a1.825,1.825,0,0,1,.57.712c-.081.136-.167.322-.353.341-.3.031-.527-.211-.8-.31a1.33,1.33,0,0,0-1.2.007c-.2-.2-.39-.4-.589-.589a1.293,1.293,0,0,0,.1-.935,8.485,8.485,0,0,0-.39-.873m3.983,1.617a.387.387,0,0,1,.6-.043c.669.675,1.351,1.344,2.013,2.026-.762.743-1.493,1.524-2.273,2.249-.179-.192-.372-.378-.558-.57a2.824,2.824,0,0,0,.31-2.942c-.081-.223-.254-.5-.093-.719" transform="translate(-15.605 -43.229)" fill="#fff"/>
  <path id="Trazado_5745" data-name="Trazado 5745" d="M.524,184.145a1.976,1.976,0,0,1,.756-.248c.328.062.533.353.762.57q4.674,4.655,9.329,9.317a1.286,1.286,0,0,1,.427.657,2,2,0,0,1-.266.737q-5.511-.009-11.008-.006c0-3.673-.006-7.353,0-11.026" transform="translate(-0.521 -136.178)" fill="#f96302"/>
  <path id="Trazado_5746" data-name="Trazado 5746" d="M103.8,184.169a4.991,4.991,0,0,1,3.11.9,7.426,7.426,0,0,1,1.883,1.716,4.805,4.805,0,0,1,.985,2.825,4.413,4.413,0,0,1-1.27,3.165q-.287-.277-.564-.564a1.132,1.132,0,0,0,.2-.681,1.8,1.8,0,0,0-.57-.929l-4.181-4.181a1.743,1.743,0,0,0-1.028-.613,1.049,1.049,0,0,0-.626.2c-.18-.2-.427-.347-.539-.595A4.048,4.048,0,0,1,103.8,184.169Z" transform="translate(-74.959 -136.369)" fill="#fff"/>
</svg>
