<svg xmlns="http://www.w3.org/2000/svg" width="18" height="18" viewBox="0 0 18 18"><defs><style>.a{fill:none;stroke:#000;stroke-linecap:round;stroke-linejoin:round;stroke-width:2px;}</style></defs><g transform="translate(1 1)"><path class="a" d="M60,437v.01M60,444v.01M60,451v.01M60,438a1,1,0,1,1,1-1A1,1,0,0,1,60,438Zm0,7a1,1,0,1,1,1-1A1,1,0,0,1,60,445Zm0,7a1,1,0,1,1,1-1A1,1,0,0,1,60,452Z" transform="translate(-52 -436)"/><path class="a" d="M60,437v.01M60,444v.01M60,451v.01M60,438a1,1,0,1,1,1-1A1,1,0,0,1,60,438Zm0,7a1,1,0,1,1,1-1A1,1,0,0,1,60,445Zm0,7a1,1,0,1,1,1-1A1,1,0,0,1,60,452Z" transform="translate(-59 -436)"/><path class="a" d="M60,437v.01M60,444v.01M60,451v.01M60,438a1,1,0,1,1,1-1A1,1,0,0,1,60,438Zm0,7a1,1,0,1,1,1-1A1,1,0,0,1,60,445Zm0,7a1,1,0,1,1,1-1A1,1,0,0,1,60,452Z" transform="translate(-45 -436)"/></g></svg>