<?xml version="1.0" encoding="UTF-8"?>
<svg id="Capa_2" data-name="Capa 2" xmlns="http://www.w3.org/2000/svg" viewBox="0 0 60 40">
  <defs>
    <style>
      .cls-1 {
        fill: #233551;
      }

      .cls-2 {
        fill: #fff;
      }
    </style>
  </defs>
  <g id="Capa_1-2" data-name="Capa 1">
    <g>
      <rect class="cls-1" width="60" height="40" rx="5" ry="5"/>
      <path class="cls-2" d="M11.8,14.16l.04-.22h4.77c.74,0,1.18.32,1.33.96l1.04,5.25c-1.11-3.06-3.5-5.06-7.18-5.99ZM19.27,21.75l-.3-1.59c-.32-.84-.83-1.61-1.54-2.31s-1.47-1.23-2.31-1.57l2.4,9.07h3.11l4.62-11.4h-3.11l-2.89,7.81ZM27.56,25.37l1.85-11.43h-2.96l-1.85,11.43h2.96ZM35.62,13.76c-1.46,0-2.65.35-3.57,1.05-.93.7-1.4,1.61-1.42,2.72,0,1.21.86,2.23,2.59,3.07.57.27.96.52,1.18.74.22.22.33.46.33.7,0,.35-.18.62-.54.81-.36.2-.76.3-1.2.3-1.04,0-1.96-.2-2.77-.59l-.41-.19-.41,2.55c.89.4,1.98.59,3.29.59,1.55.02,2.79-.32,3.72-1.04.93-.72,1.4-1.67,1.42-2.85,0-1.26-.83-2.29-2.48-3.11-.59-.3-1.02-.54-1.28-.74-.26-.2-.39-.42-.39-.67,0-.27.15-.51.44-.7.3-.2.72-.3,1.26-.3.81,0,1.54.15,2.18.44l.26.15.41-2.48c-.81-.32-1.69-.48-2.63-.48ZM43.54,13.94c-.76,0-1.28.32-1.55.96l-4.37,10.47h3.11l.63-1.7h3.77c.05.25.16.81.33,1.7h2.74l-2.37-11.43h-2.29ZM42.17,21.3c.17-.44.57-1.5,1.18-3.18l.04-.15c.05-.12.11-.28.19-.46.07-.19.12-.34.15-.46l.22.96.7,3.29h-2.48Z"/>
    </g>
  </g>
</svg>