<svg id="Walmart_logo" xmlns="http://www.w3.org/2000/svg" width="148.377" height="35.577" viewBox="0 0 148.377 35.577">
  <path id="Trazado_5762" data-name="Trazado 5762" d="M127.719,26c0-3.513-1.5-6.618-6.59-6.618a12,12,0,0,0-5.807,1.395l.824,2.819a8.567,8.567,0,0,1,4.244-1.184c2.575,0,3,1.453,3,2.39v.226c-5.621-.009-9.175,1.933-9.175,5.888A4.674,4.674,0,0,0,119.17,35.6a5.676,5.676,0,0,0,4.521-2h.095s.64,2.679,4.181,1.655a23.33,23.33,0,0,1-.247-3.741Zm-4.194,3.71a2.707,2.707,0,0,1-.107.831,2.935,2.935,0,0,1-2.83,1.988,1.92,1.92,0,0,1-2.093-2.055c0-2.128,2.35-2.713,5.03-2.7" transform="translate(-41.66 -7.071)" fill="#0071ce"/>
  <path id="Trazado_5763" data-name="Trazado 5763" d="M0,11.861S3.672,26.882,4.255,29.315c.687,2.844,1.919,3.9,5.472,3.2L12.022,23.2c.58-2.308.975-3.963,1.349-6.314h.064A61.971,61.971,0,0,0,14.545,23.2s.937,4.232,1.422,6.449,1.8,3.615,5.29,2.859l5.463-20.65H22.31l-1.875,8.933c-.5,2.588-.948,4.626-1.3,7h-.064c-.316-2.346-.718-4.3-1.235-6.836L15.9,11.861h-4.6L9.222,20.722c-.591,2.706-1.144,4.876-1.491,7.172h-.06c-.358-2.155-.844-4.9-1.358-7.5,0,0-1.231-6.345-1.666-8.531" transform="translate(0 -4.326)" fill="#0071ce"/>
  <path id="Trazado_5764" data-name="Trazado 5764" d="M53.652,26c0-3.513-1.508-6.618-6.594-6.618a12.01,12.01,0,0,0-5.8,1.395l.824,2.819a8.539,8.539,0,0,1,4.244-1.184c2.575,0,3,1.453,3,2.39v.226c-5.621-.009-9.178,1.933-9.178,5.888a4.677,4.677,0,0,0,4.95,4.683,5.657,5.657,0,0,0,4.525-2h.1s.644,2.679,4.181,1.655a23.158,23.158,0,0,1-.244-3.741Zm-4.2,3.71a2.824,2.824,0,0,1-.1.831,2.945,2.945,0,0,1-2.837,1.988,1.92,1.92,0,0,1-2.09-2.055c0-2.128,2.349-2.713,5.03-2.7" transform="translate(-14.642 -7.071)" fill="#0071ce"/>
  <path id="Trazado_5765" data-name="Trazado 5765" d="M65.012,11.861V32.5h4.2V11.861Z" transform="translate(-23.714 -4.326)" fill="#0071ce"/>
  <path id="Trazado_5766" data-name="Trazado 5766" d="M155.753,11.861v15.23c0,2.1.395,3.568,1.244,4.466a4.676,4.676,0,0,0,3.419,1.3,10.167,10.167,0,0,0,3.044-.449l-.051-3.279a6.724,6.724,0,0,1-1.6.185c-1.433,0-1.906-.907-1.906-2.8V20.69h3.655V16.745H159.9V11.861" transform="translate(-56.812 -4.326)" fill="#0071ce"/>
  <path id="Trazado_5767" data-name="Trazado 5767" d="M138.675,19.752v15.51h4.339V27.319a5.858,5.858,0,0,1,.095-1.138,3.268,3.268,0,0,1,3.426-2.735,7.26,7.26,0,0,1,1.244.116V19.5a4.453,4.453,0,0,0-5.183,3.188h-.107V19.752" transform="translate(-50.583 -7.079)" fill="#0071ce"/>
  <path id="Trazado_5768" data-name="Trazado 5768" d="M75.456,19.752v15.51h4.228v-9.1a3.537,3.537,0,0,1,.2-1.258,2.837,2.837,0,0,1,2.566-1.989c1.7,0,2.506,1.437,2.506,3.51v8.842h4.217V26.049a4.338,4.338,0,0,1,.174-1.251,2.645,2.645,0,0,1,2.539-1.888c1.72,0,2.553,1.406,2.553,3.85v8.5h4.213V26.117c0-4.8-2.444-6.71-5.219-6.71a5.611,5.611,0,0,0-3.064.838A6.643,6.643,0,0,0,88.4,22.17h-.064a4.425,4.425,0,0,0-4.283-2.764,4.877,4.877,0,0,0-4.521,2.446h-.064v-2.1" transform="translate(-27.523 -7.079)" fill="#0071ce"/>
  <path id="Trazado_5769" data-name="Trazado 5769" d="M202.385,11.977A1.536,1.536,0,0,0,204,10.988l.822-9.311c0-.922-1.086-1.677-2.44-1.677s-2.441.755-2.441,1.677l.829,9.311a1.524,1.524,0,0,0,1.611.989" transform="translate(-72.932)" fill="#ffc220"/>
  <path id="Trazado_5770" data-name="Trazado 5770" d="M189.619,19.177a1.527,1.527,0,0,0-.056-1.895l-7.674-5.367c-.8-.466-1.993.089-2.677,1.264s-.544,2.49.238,2.946l8.5,3.939a1.519,1.519,0,0,0,1.673-.895" transform="translate(-65.209 -4.286)" fill="#ffc220"/>
  <path id="Trazado_5771" data-name="Trazado 5771" d="M211.562,19.17a1.562,1.562,0,0,0,1.675.906l8.5-3.95c.789-.466.908-1.769.24-2.942s-1.884-1.726-2.681-1.269l-7.676,5.361a1.566,1.566,0,0,0-.046,1.9" transform="translate(-77.066 -4.288)" fill="#ffc220"/>
  <path id="Trazado_5772" data-name="Trazado 5772" d="M202.385,37.163a1.536,1.536,0,0,1,1.618.989l.822,9.311c0,.922-1.086,1.669-2.44,1.669s-2.441-.747-2.441-1.669l.829-9.311a1.524,1.524,0,0,1,1.611-.989" transform="translate(-72.932 -13.556)" fill="#ffc220"/>
  <path id="Trazado_5773" data-name="Trazado 5773" d="M211.562,32.041c.435-.722,1.146-1.107,1.675-.9l8.5,3.943c.789.456.908,1.771.24,2.946s-1.884,1.72-2.681,1.264l-7.676-5.368a1.543,1.543,0,0,1-.046-1.886" transform="translate(-77.066 -11.339)" fill="#ffc220"/>
  <path id="Trazado_5774" data-name="Trazado 5774" d="M189.619,32.033a1.528,1.528,0,0,1-.056,1.895l-7.674,5.359c-.8.466-1.993-.091-2.677-1.257s-.544-2.49.238-2.946l8.5-3.943a1.516,1.516,0,0,1,1.673.891" transform="translate(-65.209 -11.339)" fill="#ffc220"/>
  <path id="Trazado_5775" data-name="Trazado 5775" d="M231.129,42.052h.106c.144,0,.2.045.218.16a.789.789,0,0,0,.078.249h.273a.5.5,0,0,1-.071-.256.29.29,0,0,0-.2-.244v-.025a.248.248,0,0,0,.218-.238.314.314,0,0,0-.095-.225.74.74,0,0,0-.371-.078,1.72,1.72,0,0,0-.4.038v1.029h.242Zm.007-.469.124-.016c.146,0,.224.067.224.162s-.105.155-.24.155h-.107Zm.155-.7a1.044,1.044,0,1,0,1.062,1.037,1.04,1.04,0,0,0-1.062-1.037m0,.209a.832.832,0,0,1,0,1.662.832.832,0,0,1-.007-1.662" transform="translate(-83.975 -14.913)" fill="#ffc220"/>
</svg>
