<?xml version="1.0" encoding="UTF-8"?>
<svg version="1.1" xmlns="http://www.w3.org/2000/svg" width="719" height="105">
<path d="M0 0 C1.6512612 1.41107775 3.21022202 2.92897202 4.74609375 4.46484375 C7.44135188 3.19648698 9.71675071 1.79807649 12.05859375 -0.03515625 C19.42621753 -5.31554623 27.87859374 -5.49690901 36.58203125 -4.0703125 C45.88062679 -1.86938443 53.07247934 2.46318461 58.53125 10.38671875 C63.05782514 18.12992768 63.89961991 26.06927007 63.94921875 34.93359375 C63.95491882 35.73212769 63.9606189 36.53066162 63.9664917 37.35339355 C63.97589594 39.03424777 63.98245737 40.71512003 63.98632812 42.39599609 C63.99606405 44.95703241 64.02714213 47.51727553 64.05859375 50.078125 C64.06512219 51.71744319 64.07037328 53.35676707 64.07421875 54.99609375 C64.08656555 55.75563354 64.09891235 56.51517334 64.1116333 57.29772949 C64.09161383 62.1069709 63.27788406 65.37340494 60.74609375 69.46484375 C57.17997344 72.43233475 52.22362521 71.7950748 47.80859375 71.77734375 C47.01001953 71.79345703 46.21144531 71.80957031 45.38867188 71.82617188 C40.68923488 71.83006536 37.53934743 71.53831495 33.74609375 68.46484375 C31.28152108 64.76798475 31.06870461 61.75497495 31.74609375 57.46484375 C33.43359375 54.52734375 33.43359375 54.52734375 35.74609375 52.46484375 C38.390625 51.8359375 38.390625 51.8359375 40.74609375 51.46484375 C40.66448716 47.63068662 40.55170956 43.79803616 40.43359375 39.96484375 C40.41103516 38.8871875 40.38847656 37.80953125 40.36523438 36.69921875 C40.15090926 30.30843354 39.4907032 25.26890563 36.74609375 19.46484375 C34.26507908 17.33825975 32.59876646 17.45145036 29.30859375 17.15234375 C25.48953268 17.48734911 23.71682652 18.08825753 20.74609375 20.46484375 C18.56013363 23.84131139 18.44438362 26.79193488 18.33203125 30.76171875 C18.29335937 31.96699219 18.2546875 33.17226562 18.21484375 34.4140625 C18.18390625 35.66832031 18.15296875 36.92257813 18.12109375 38.21484375 C18.08242187 39.48457031 18.04375 40.75429687 18.00390625 42.0625 C17.90965153 45.19646945 17.82404209 48.33043324 17.74609375 51.46484375 C18.53371094 51.59890625 19.32132812 51.73296875 20.1328125 51.87109375 C22.74609375 52.46484375 22.74609375 52.46484375 24.55859375 53.96484375 C26.3691035 57.77644322 26.55665265 61.33099335 25.74609375 65.46484375 C23.5645023 68.22053822 21.87431881 69.90073122 18.74609375 71.46484375 C14.66895072 71.76222088 10.58280288 71.74294384 6.49609375 71.77734375 C5.36300781 71.80634766 4.22992188 71.83535156 3.0625 71.86523438 C-3.32088168 71.91387679 -7.47348121 71.90322816 -12.25390625 67.46484375 C-14.03055887 64.52950464 -14.27169979 62.89188865 -14.12890625 59.46484375 C-13.10492799 55.95406115 -11.87329938 54.00939708 -9.25390625 51.46484375 C-7.93390625 51.46484375 -6.61390625 51.46484375 -5.25390625 51.46484375 C-5.36489768 47.79761473 -5.49525615 44.13131139 -5.62890625 40.46484375 C-5.65984375 39.43488281 -5.69078125 38.40492187 -5.72265625 37.34375 C-5.79375466 27.26048445 -5.79375466 27.26048445 -10.00390625 18.52734375 C-14.4675349 16.41951911 -17.23040973 16.15779479 -22.00390625 17.58984375 C-25.74512172 19.74823729 -26.06971216 20.46001882 -27.25390625 24.46484375 C-27.61636438 27.55598537 -27.61636438 27.55598537 -27.66796875 30.859375 C-27.70664063 32.06142578 -27.7453125 33.26347656 -27.78515625 34.50195312 C-27.81609375 35.74783203 -27.84703125 36.99371094 -27.87890625 38.27734375 C-27.91757813 39.54255859 -27.95625 40.80777344 -27.99609375 42.11132812 C-28.09021282 45.22902226 -28.17584986 48.34671289 -28.25390625 51.46484375 C-27.08794922 51.64660156 -27.08794922 51.64660156 -25.8984375 51.83203125 C-23.25390625 52.46484375 -23.25390625 52.46484375 -20.94140625 54.58984375 C-18.79786724 58.24179909 -18.65735231 60.28896615 -19.25390625 64.46484375 C-21.68244016 68.51240027 -23.82020721 70.05949174 -28.25390625 71.46484375 C-35.65839714 72.13877495 -42.78496237 72.43442295 -49.25390625 68.46484375 C-51.28532011 65.41772297 -51.50830549 64.78282541 -51.54443359 61.3515625 C-51.5571933 60.52640137 -51.569953 59.70124023 -51.58309937 58.85107422 C-51.58532501 57.96049316 -51.58755066 57.06991211 -51.58984375 56.15234375 C-51.59650055 55.22824707 -51.60315735 54.30415039 -51.61001587 53.35205078 C-51.6201482 51.39178455 -51.62483271 49.43148379 -51.62451172 47.47119141 C-51.62884955 44.5036326 -51.66506378 41.53760458 -51.703125 38.5703125 C-51.78959439 24.45425872 -50.84131453 14.12129567 -40.6171875 3.5625 C-30.11151148 -5.76237276 -11.92381196 -8.12141785 0 0 Z " fill="#2E7CA8" transform="translate(195.25390625,31.53515625)"/>
<path d="M0 0 C1.55557617 -0.04253906 1.55557617 -0.04253906 3.14257812 -0.0859375 C7.70055588 -0.09764714 10.72274677 0.02531191 14.734375 2.29296875 C17.51247095 7.16650886 17.34464751 11.79171897 17.375 17.3125 C17.40013672 18.38693359 17.42527344 19.46136719 17.45117188 20.56835938 C17.50993295 23.21260771 17.54629376 25.85520488 17.5625 28.5 C18.20670898 28.05962402 18.85091797 27.61924805 19.51464844 27.16552734 C27.32868235 21.92683695 35.27531878 19.54297858 44.6875 21.0625 C55.33080732 23.78283414 65.04125938 29.75519842 71.23046875 38.98828125 C77.15584151 50.16134484 77.9752602 61.38840922 74.66015625 73.5078125 C71.1416337 83.09922985 64.07062433 90.07357178 55.12890625 94.78125 C44.21543278 99.79893895 30.06593115 100.6590677 18.66796875 96.48046875 C12.72305937 93.71206011 7.97350427 90.40111586 3.5625 85.5 C2.881875 84.778125 2.20125 84.05625 1.5 83.3125 C-2.50114028 77.50439314 -5.57045033 70.02686942 -5.55102539 62.93676758 C-5.55094986 62.01603958 -5.55087433 61.09531158 -5.55079651 60.14668274 C-5.54563522 59.15597275 -5.54047394 58.16526276 -5.53515625 57.14453125 C-5.5337413 56.12775803 -5.53232635 55.1109848 -5.53086853 54.06340027 C-5.52526707 50.81307036 -5.51271432 47.56280912 -5.5 44.3125 C-5.49498519 42.11002704 -5.49042225 39.90755299 -5.48632812 37.70507812 C-5.47529717 32.30336196 -5.45855762 26.90168588 -5.4375 21.5 C-6.06398438 21.37520264 -6.69046875 21.25040527 -7.3359375 21.12182617 C-8.56183594 20.86622925 -8.56183594 20.86622925 -9.8125 20.60546875 C-10.62460937 20.43942139 -11.43671875 20.27337402 -12.2734375 20.10229492 C-14.4375 19.5 -14.4375 19.5 -16.4375 17.8125 C-17.81958446 14.61642969 -18.31520113 11.98551769 -18.4375 8.5 C-14.66461049 -0.23721781 -8.47567648 -0.02099239 0 0 Z M20.125 50.5625 C17.45338189 55.58514205 16.76447891 59.89571554 17.5625 65.5 C19.80589057 71.01177855 23.15911166 74.90221714 28.5625 77.5 C34.77927194 79.1639687 39.94055688 78.64927229 45.5625 75.5 C50.43311739 71.81997797 52.62423785 67.44877549 53.5625 61.5 C53.32010423 55.10285934 51.13575006 50.86537506 46.5625 46.5 C37.89815444 40.45510775 26.56162331 42.47546046 20.125 50.5625 Z " fill="#FFCC06" transform="translate(544.4375,5.5)"/>
<path d="M0 0 C0.90764099 -0.00428513 1.81528198 -0.00857025 2.75042725 -0.01298523 C4.65294566 -0.01868783 6.55548586 -0.01925913 8.45800781 -0.01489258 C11.36560869 -0.01171193 14.27221047 -0.03531346 17.1796875 -0.06054688 C19.03645706 -0.06281826 20.89322933 -0.06352411 22.75 -0.0625 C23.61465881 -0.07170975 24.47931763 -0.08091949 25.37017822 -0.09040833 C31.18956828 -0.04573768 34.62436793 0.90146408 38.921875 5.05078125 C40.65505609 8.33470331 40.55870133 10.6419811 40.109375 14.30078125 C37.68218453 18.34609869 35.55949092 19.93564999 31.109375 21.30078125 C28.33438814 21.48700286 25.65253804 21.57789531 22.87890625 21.57421875 C21.25455056 21.59452048 19.63020166 21.61537149 18.00585938 21.63671875 C15.46958677 21.65921341 12.93358424 21.67575407 10.3972168 21.68164062 C-0.54892919 21.72438648 -9.25623258 22.11822951 -18.765625 28.11328125 C-25.8737933 35.43051332 -26.23223021 43.36077961 -26.27783203 53.00830078 C-26.14862107 60.61432575 -24.60288181 66.1295916 -19.46875 71.8984375 C-11.9047051 78.87281223 -2.48806341 79.4196118 7.2734375 79.4765625 C8.82293058 79.49973908 10.37240983 79.52385549 11.921875 79.54882812 C14.33570987 79.58402168 16.7490247 79.61336224 19.16308594 79.62670898 C21.51298493 79.6422002 23.86142558 79.68237701 26.2109375 79.7265625 C26.92875397 79.72465408 27.64657043 79.72274567 28.38613892 79.72077942 C33.22138919 79.83842934 35.71070487 80.86882228 39.109375 84.30078125 C40.72227121 87.52657368 40.69852633 90.81273758 40.109375 94.30078125 C36.98156219 98.532528 34.09604033 99.95132109 29.109375 101.30078125 C25.69702148 101.55957031 25.69702148 101.55957031 21.98046875 101.56640625 C21.30951675 101.5683197 20.63856476 101.57023315 19.94728088 101.57220459 C18.53117496 101.57355927 17.11505632 101.56991312 15.69897461 101.56152344 C13.57701194 101.55093168 11.45591897 101.56138098 9.33398438 101.57421875 C-8.714464 101.59359111 -24.60999567 99.4473833 -37.86328125 86.3515625 C-47.39135966 76.05476439 -51.31022018 62.09582012 -51.1015625 48.19921875 C-50.09271274 34.33687571 -45.34847397 20.82147064 -34.890625 11.30078125 C-24.27718323 3.02493589 -13.26201993 -0.01411119 0 0 Z " fill="#FFCD07" transform="translate(408.890625,1.69921875)"/>
<path d="M0 0 C6.99462741 6.19415234 11.99775204 15.58998369 12.82421875 24.859375 C12.94443827 31.85060259 12.36375779 38.84206195 11.875 45.8125 C13.27298828 45.74869141 13.27298828 45.74869141 14.69921875 45.68359375 C17.875 45.8125 17.875 45.8125 20.6875 47.875 C23.31817618 51.4076223 23.875 53.42155016 23.875 57.8125 C22.65785723 61.76821399 21.54570051 63.3552042 18.125 65.6875 C11.69027178 68.00731618 2.23173757 68.21491057 -4.0234375 65.6015625 C-6.57344969 63.43073427 -6.85904902 62.09256211 -7.125 58.8125 C-7.78886719 59.29460937 -8.45273437 59.77671875 -9.13671875 60.2734375 C-10.01972656 60.90507813 -10.90273438 61.53671875 -11.8125 62.1875 C-12.68261719 62.81398438 -13.55273438 63.44046875 -14.44921875 64.0859375 C-20.96904613 68.29289181 -28.42429634 69.70152433 -36.125 68.8125 C-44.26061883 67.03060601 -51.04255376 64.58680469 -57.125 58.8125 C-57.75148438 58.22597656 -58.37796875 57.63945313 -59.0234375 57.03515625 C-67.02009222 48.78544284 -68.74974283 39.57523204 -68.59130859 28.44580078 C-68.15566512 17.82727046 -64.989272 10.70886474 -57.55078125 3.0390625 C-40.97854419 -12.17216958 -18.27943407 -12.79560385 0 0 Z M-42 17.6875 C-45.86162567 23.36636129 -47.01249678 27.99697988 -46.125 34.8125 C-44.78078464 39.56829993 -42.55954349 42.89063659 -38.5625 45.8125 C-33.5766299 48.57103748 -28.67472091 48.5712176 -23.125 47.8125 C-17.67629596 46.06480248 -14.33958192 42.41971838 -11.125 37.8125 C-9.33706956 32.44870867 -9.43444803 26.92477662 -11.1875 21.5625 C-14.30056432 17.14395709 -17.94672996 13.53859001 -23.125 11.8125 C-30.32227674 11.32454903 -36.99060872 11.98766476 -42 17.6875 Z " fill="#FFCD07" transform="translate(695.125,36.1875)"/>
<path d="M0 0 C0.82523666 -0.00960754 1.65047333 -0.01921509 2.50071716 -0.02911377 C3.84433067 -0.03548859 3.84433067 -0.03548859 5.21508789 -0.04199219 C6.14059952 -0.04769226 7.06611115 -0.05339233 8.01966858 -0.05926514 C9.98591975 -0.06872746 11.95218686 -0.07525399 13.91845703 -0.07910156 C16.89458009 -0.08872758 19.86998876 -0.11970542 22.84594727 -0.15136719 C39.72169482 -0.2462377 54.20772952 1.8825167 66.96508789 13.94238281 C76.29266302 24.11140906 80.41593735 38.62596492 80.21118164 52.26269531 C79.19934589 66.16606806 74.43581284 79.58445866 64.00024414 89.16113281 C53.8674644 97.57251368 41.58398244 100.30033579 28.71899414 100.36425781 C27.8278894 100.36995789 26.93678467 100.37565796 26.01867676 100.38153076 C24.1393349 100.39095257 22.25997674 100.3975035 20.38061523 100.40136719 C17.5100435 100.41109959 14.64018014 100.44216015 11.76977539 100.47363281 C9.94035254 100.48016103 8.1109246 100.48541221 6.28149414 100.48925781 C4.99849426 100.50777802 4.99849426 100.50777802 3.6895752 100.52667236 C-2.11547243 100.50501282 -5.52595835 99.54962696 -9.81225586 95.41113281 C-11.54543695 92.12721075 -11.44908219 89.81993296 -10.99975586 86.16113281 C-8.57256539 82.11581537 -6.44987178 80.52626408 -1.99975586 79.16113281 C0.775231 78.9749112 3.4570811 78.88401875 6.23071289 78.88769531 C7.85506858 78.86739358 9.47941748 78.84654257 11.10375977 78.82519531 C13.64003237 78.80270066 16.1760349 78.78615999 18.71240234 78.78027344 C29.65854833 78.73752758 38.36585172 78.34368455 47.87524414 72.34863281 C54.36840378 65.66449789 55.53964478 58.27716179 56.00024414 49.16113281 C55.5218433 40.01171668 53.92019815 33.90686664 47.18774414 27.47363281 C39.46246527 21.86901873 32.00151526 21.03338468 22.71508789 21.02050781 C21.11676619 21.00219368 19.51845846 20.98262467 17.92016602 20.96191406 C15.42277015 20.93288888 12.92628689 20.91113058 10.42871094 20.91064453 C8.00253044 20.90730761 5.57840973 20.8727741 3.15258789 20.83300781 C2.03834694 20.84361237 2.03834694 20.84361237 0.90159607 20.85443115 C-3.09165664 20.76092109 -4.81832538 20.30993256 -7.94677734 17.74414062 C-11.15077681 13.71294615 -11.52648161 11.34060266 -10.99975586 6.16113281 C-7.59745819 2.04256195 -5.29205095 0.04975298 0 0 Z " fill="#2E7CA8" transform="translate(10.999755859375,1.8388671875)"/>
<path d="M0 0 C7.5383943 6.16055071 12.60625752 13.47913166 14 23.25 C14.24461253 27.57148811 13.53055563 30.38492053 11 34 C6.86612525 36.7559165 3.18812365 37.10896658 -1.69848633 37.20532227 C-3.0493206 37.2352401 -3.0493206 37.2352401 -4.42744446 37.26576233 C-5.3859581 37.28247482 -6.34447174 37.29918732 -7.33203125 37.31640625 C-8.32377853 37.33718735 -9.31552582 37.35796844 -10.33732605 37.37937927 C-13.49564899 37.44460052 -16.65405288 37.50363202 -19.8125 37.5625 C-21.95769056 37.60571131 -24.10287302 37.64932643 -26.24804688 37.69335938 C-31.49861311 37.80025372 -36.74925932 37.90207037 -42 38 C-38.25277079 43.81765208 -36.03906616 46.30250941 -29.1875 47.875 C-23.90194501 48.38457146 -19.48504904 46.47549787 -15 43.8125 C-11.71645201 42.47855863 -8.44783064 42.42536156 -5 43 C-2.1899654 44.79363911 -0.49059532 46.01880935 1 49 C1.48013033 53.1611295 1.34558666 55.39522335 -0.75 59.0625 C-6.18487423 64.88893577 -15.13433707 68.61303072 -22.99609375 69.23828125 C-35.38481961 69.50546149 -47.14373459 66.88837624 -57 59 C-66.20786406 49.49358745 -69.35902352 40.52358118 -69.2109375 27.41796875 C-68.49901856 15.88224521 -63.98556126 8.68797253 -55.875 0.8125 C-40.04889344 -12.79098922 -16.36127705 -12.16749272 0 0 Z M-41.80078125 18.18359375 C-43.29063337 20.22154323 -43.29063337 20.22154323 -44 24 C-32.78 24.33 -21.56 24.66 -10 25 C-10.77949819 19.2510317 -10.77949819 19.2510317 -13.8125 15.25 C-14.31394531 14.67765625 -14.81539063 14.1053125 -15.33203125 13.515625 C-19.43962556 9.78319739 -23.17660301 9.61628131 -28.5390625 9.7578125 C-34.70740996 10.36485622 -37.97604799 13.69630827 -41.80078125 18.18359375 Z " fill="#2F7DA9" transform="translate(335,36)"/>
<path d="M0 0 C2.85131277 2.56618149 2.99931822 3.9947162 3.5 7.875 C3.37521294 11.04815665 2.7214199 12.95878802 0.8125 15.5 C-2 18 -2 18 -4.67578125 18.15625 C-5.44277344 18.1046875 -6.20976562 18.053125 -7 18 C-6.91857227 21.85499569 -6.80577646 25.70847275 -6.6875 29.5625 C-6.66494141 30.64853516 -6.64238281 31.73457031 -6.61914062 32.85351562 C-6.4159632 38.93036766 -6.04227261 43.67602293 -3 49 C0.85131552 51.7765298 4.38237777 52.54782124 9.0390625 52.3515625 C12.41318809 51.74663959 14.46578179 50.23252557 17 48 C18.85226497 44.30222435 19.28766587 41.1508593 19.4140625 37.04296875 C19.45273437 35.93115234 19.49140625 34.81933594 19.53125 33.67382812 C19.5621875 32.52333984 19.593125 31.37285156 19.625 30.1875 C19.66367187 29.01767578 19.70234375 27.84785156 19.7421875 26.64257812 C19.8362513 23.76187436 19.92189877 20.88117346 20 18 C18.58654297 17.81244141 18.58654297 17.81244141 17.14453125 17.62109375 C13.47425499 16.8961572 12.33153647 15.84965568 10 13 C8.39035213 9.78070427 8.39313758 6.48112288 9 3 C11.53453657 -0.21954645 13.11297305 -1.70432435 17 -3 C19.95401536 -3.24874332 22.91156767 -3.23115464 25.875 -3.25 C26.67808594 -3.270625 27.48117187 -3.29125 28.30859375 -3.3125 C33.03421381 -3.34364082 36.18602171 -3.10338918 40 0 C42.06475796 3.09713695 42.25540106 3.7990249 42.29052734 7.31274414 C42.30328705 8.18117447 42.31604675 9.0496048 42.32919312 9.9443512 C42.33141876 10.88181686 42.33364441 11.81928253 42.3359375 12.78515625 C42.3459227 14.24144691 42.3459227 14.24144691 42.35610962 15.72715759 C42.36624212 17.78577785 42.37092645 19.844431 42.37060547 21.90307617 C42.37494985 25.02644534 42.41118317 28.148368 42.44921875 31.27148438 C42.45509282 33.27603687 42.45905826 35.28059603 42.4609375 37.28515625 C42.47530853 38.2084523 42.48967957 39.13174835 42.50448608 40.08302307 C42.43910516 49.54490524 39.43322771 57.42216217 32.91796875 64.3125 C23.35147456 72.72945619 10.31020585 72.77025921 -1.73095703 72.19091797 C-9.65722048 71.52399974 -16.58321554 68.66330831 -22.3125 63.125 C-28.9650824 54.74767402 -30.14873847 45.37856763 -30.203125 35.05859375 C-30.21167511 33.7906472 -30.21167511 33.7906472 -30.22039795 32.49708557 C-30.22980496 30.71787757 -30.23636473 28.93865249 -30.24023438 27.15942383 C-30.24998183 24.4425645 -30.28106202 21.72644915 -30.3125 19.00976562 C-30.31902711 17.27604613 -30.32427873 15.54232127 -30.328125 13.80859375 C-30.3404718 13.00014511 -30.3528186 12.19169647 -30.36553955 11.35874939 C-30.34735845 6.74810247 -29.99875554 3.73694478 -27 0 C-19.08097979 -5.10336858 -7.96074107 -4.69301329 0 0 Z " fill="#FFCC06" transform="translate(483,32)"/>
<path d="M0 0 C1.91232422 -0.02126953 1.91232422 -0.02126953 3.86328125 -0.04296875 C9.0245788 0.26807983 13.11898021 0.59817593 16.85949707 4.38830566 C18.99851225 7.66374854 19.19340483 9.39645772 19.20507812 13.27539062 C19.21768677 14.48014038 19.23029541 15.68489014 19.24328613 16.92614746 C19.23518921 18.2189563 19.22709229 19.51176514 19.21875 20.84375 C19.22144701 22.19226359 19.22533117 23.54077527 19.23034668 24.88928223 C19.23623211 27.71039411 19.22771068 30.53099811 19.20898438 33.35205078 C19.18619415 36.96033405 19.19932254 40.56742717 19.22327423 44.17566681 C19.23775883 46.9587697 19.23311431 49.74159245 19.22276306 52.52470398 C19.21881364 54.49942807 19.23091856 56.47416323 19.24328613 58.44885254 C19.23067749 59.65360229 19.21806885 60.85835205 19.20507812 62.09960938 C19.20030457 63.68582092 19.20030457 63.68582092 19.19543457 65.30407715 C18.56211844 68.89926108 17.18955833 70.57860467 14.6875 73.1875 C10.9548817 75.05380915 6.48279215 74.41548906 2.375 74.4375 C1.42431641 74.458125 0.47363281 74.47875 -0.50585938 74.5 C-9.35583514 74.54947576 -9.35583514 74.54947576 -13.3125 71.1875 C-15.64367811 67.76843877 -16.3125 65.77706112 -16.3125 61.625 C-15.0993934 57.45494607 -13.80609772 55.74947166 -10.3125 53.1875 C-8.3325 53.1875 -6.3525 53.1875 -4.3125 53.1875 C-4.3125 42.6275 -4.3125 32.0675 -4.3125 21.1875 C-6.6225 20.8575 -8.9325 20.5275 -11.3125 20.1875 C-14.25 18.125 -14.25 18.125 -16.3125 15.1875 C-16.93729295 11.25130442 -17.23487405 8.87246676 -15.3203125 5.375 C-10.92492415 -0.30351414 -6.79954142 0.03416855 0 0 Z " fill="#2E7CA8" transform="translate(113.3125,28.8125)"/>
<path d="M0 0 C3.55139939 3.4647799 4.92635932 5.87697965 5.25 10.8125 C5.18712633 14.66875189 4.51790161 16.96115323 2 20 C-1.56131879 22.950807 -4.58756636 23.49290089 -9.078125 23.2734375 C-12.13010399 22.83921285 -13.68552365 22.05731231 -16 20 C-18.73245106 16.1362794 -20 13.07849392 -20 8.3125 C-18.63017402 3.77495145 -16.79811352 1.21637091 -12.875 -1.4375 C-8.35697425 -2.32146156 -4.30719848 -1.56426972 0 0 Z " fill="#317EA9" transform="translate(126,2)"/>
</svg>
