<?xml version="1.0" encoding="utf-8"?>
<!-- Generator: Adobe Illustrator 25.2.3, SVG Export Plug-In . SVG Version: 6.00 Build 0)  -->
<svg version="1.1" id="Capa_1" xmlns="http://www.w3.org/2000/svg" xmlns:xlink="http://www.w3.org/1999/xlink" x="0px" y="0px"
	 viewBox="0 0 1000 1000" style="enable-background:new 0 0 1000 1000;" xml:space="preserve">
<style type="text/css">
	.st0{fill:#2A7AA7;}
</style>
<path class="st0" d="M380.1,338.6c-2,0-4.1-0.8-5.6-2.3c-3.1-3.1-3.1-8.1,0-11.2l110.1-110.1c3.1-3.1,8.1-3.1,11.2,0s3.1,8.1,0,11.2
	L385.7,336.2C384.1,337.8,382.1,338.6,380.1,338.6z M414,364.6l110.1-110.1c3.1-3.1,3.1-8.1,0-11.2s-8.1-3.1-11.2,0L402.8,353.4
	c-3.1,3.1-3.1,8.1,0,11.2c1.5,1.5,3.6,2.3,5.6,2.3S412.5,366.2,414,364.6z M845,354.2c19.5,46.2,29.4,95.2,29.4,145.8
	s-9.9,99.6-29.4,145.8c-18.9,44.6-45.9,84.6-80.2,119s-74.4,61.4-119,80.2c-46.2,19.5-95.2,29.4-145.8,29.4
	c-50.5,0-99.6-9.9-145.8-29.4c-44.6-18.9-84.6-45.9-119-80.2c-34.4-34.4-61.4-74.4-80.2-119c-19.5-46.2-29.4-95.2-29.4-145.8
	s9.9-99.6,29.4-145.8c18.9-44.6,45.9-84.6,80.2-119c34.4-34.4,74.4-61.4,119-80.2c46.2-19.5,95.2-29.4,145.8-29.4
	c50.6,0,99.6,9.9,145.8,29.4c44.6,18.9,84.6,45.9,119,80.2S826.2,309.6,845,354.2z M858.6,500c0-95.8-37.3-185.8-105-253.6
	c-67.7-67.7-157.8-105-253.6-105c-95.8,0-185.8,37.3-253.6,105c-67.7,67.7-105,157.8-105,253.6c0,24.6,2.5,48.9,7.3,72.4l88.8-88.8
	c3.6-3.6,8.7-5,13.4-3.9l65.3-65.3c-21.1-25.7-19.7-63.8,4.3-87.8l138.2-138.2c3.1-3.1,8.1-3.1,11.2,0s3.1,8.1,0,11.2L331.8,337.8
	c-19.3,19.3-19.3,50.7,0,70.1c19.3,19.3,50.7,19.3,70.1,0L540,269.7c3.1-3.1,8.1-3.1,11.2,0s3.1,8.1,0,11.2L413.1,419
	c-12.4,12.4-28.8,19.2-46.2,19.2c-14.3,0-27.8-4.5-39-12.9l-65.6,65.6c1,4.7-0.3,9.8-3.9,13.4L157.1,605.5
	c16.8,54.8,46.7,105,88.1,146.8l130.5-130.5c3.6-3.6,8.7-5,13.4-3.9l76.6-76.6c-12.7-16.8-16.8-39.9-11.6-65.9
	c5.8-28.4,22.1-57.3,46.1-81.3s52.9-40.4,81.3-46.1c29.6-6,55.4,0.2,72.5,17.3c17.1,17.1,23.3,42.9,17.3,72.5
	c-5.8,28.4-22.1,57.3-46.1,81.3s-52.9,40.4-81.3,46.1c-7.4,1.5-14.6,2.2-21.4,2.2c-17.8,0-33.5-5-45.8-14.8L400.3,629
	c1,4.7-0.3,9.8-3.9,13.4L266.6,772.3c49.6,42.6,109,70.5,172.9,81.3l84-84c3.6-3.6,8.7-5,13.4-3.9l11.6-11.6l-39.6-40.2
	c-3.1-3.1-3-8.1,0-11.2l186.2-186.2c13.6-13.6,31.8-21.1,51-21.1c19.3,0,37.4,7.5,51,21.1c3.1,3.1,3.1,8.1,0,11.2l-232,232
	c0,0,0,0,0,0l-17.2,17.2c1,4.7-0.3,9.8-3.9,13.4l-67.6,67.6c7.8,0.5,15.6,0.8,23.4,0.8c95.8,0,185.8-37.3,253.6-105
	C821.3,685.8,858.6,595.8,858.6,500z M780,522.4c-22.1-16.6-53.6-14.8-73.7,5.2L525.8,708.3l33.9,34.5L780,522.4z M540.8,549.5
	c25.4-5.1,51.4-20,73.2-41.8c21.8-21.8,36.6-47.8,41.8-73.2c4.9-24.2,0.3-44.9-13-58.2c-9.8-9.8-23.6-14.9-40-14.9
	c-5.8,0-11.9,0.6-18.2,1.9c-25.4,5.1-51.4,20-73.2,41.8c-21.8,21.8-36.6,47.8-41.8,73.2c-4.9,24.2-0.3,44.9,13,58.2
	S516.6,554.4,540.8,549.5z M939.9,500c0,59.4-11.6,117-34.6,171.2c-22.2,52.4-53.9,99.4-94.3,139.8c-40.4,40.4-87.4,72.1-139.8,94.3
	C617,928.3,559.4,939.9,500,939.9s-117-11.6-171.2-34.6c-52.4-22.2-99.4-53.9-139.8-94.3c-40.4-40.4-72.1-87.4-94.3-139.8
	C71.7,617,60.1,559.4,60.1,500s11.6-117,34.6-171.2c22.2-52.4,53.9-99.4,94.3-139.8c40.4-40.4,87.4-72.1,139.8-94.3
	C383,71.7,440.6,60.1,500,60.1s117,11.6,171.2,34.6c52.4,22.2,99.4,53.9,139.8,94.3c40.4,40.4,72.1,87.4,94.3,139.8
	C928.3,383,939.9,440.6,939.9,500z M910.6,500c0-55.4-10.9-109.2-32.3-159.8c-20.7-48.9-50.3-92.8-88-130.5s-81.6-67.3-130.5-88
	C609.2,100.2,555.4,89.4,500,89.4s-109.2,10.9-159.8,32.3c-48.9,20.7-92.8,50.3-130.5,88c-37.7,37.7-67.3,81.6-88,130.5
	C100.2,390.8,89.4,444.6,89.4,500s10.9,109.2,32.3,159.8c20.7,48.9,50.3,92.8,88,130.5c37.7,37.7,81.6,67.3,130.5,88
	c50.6,21.4,104.4,32.3,159.8,32.3s109.2-10.9,159.8-32.3c48.9-20.7,92.8-50.3,130.5-88s67.3-81.6,88-130.5
	C899.8,609.2,910.6,555.4,910.6,500z"/>
</svg>
