<svg xmlns="http://www.w3.org/2000/svg" viewBox="0 0 75 75"><g id="Capa_2" data-name="Capa 2"><g id="Capa_1-2" data-name="Capa 1"><path d="M53.44,0H7.8A7.8,7.8,0,0,0,0,7.8V67.07A7.88,7.88,0,0,0,7.66,75a7.8,7.8,0,0,0,7.93-7.8V18.07a2.48,2.48,0,0,1,2.48-2.48H38.53a2.59,2.59,0,0,0,1.86-.77L54,1.26A.74.74,0,0,0,53.44,0Z" fill="#2a7aa7"/><path d="M67.2,75a7.78,7.78,0,0,1-5.51-2.28L32,43a7.78,7.78,0,0,1,0-11L61.69,2.28a7.8,7.8,0,0,1,11,11L48.53,37.5,72.72,61.69A7.8,7.8,0,0,1,67.2,75Z" fill="#2a7aa7"/><path d="M53.44,0H7.8A7.8,7.8,0,0,0,0,7.8V67.07A7.88,7.88,0,0,0,7.66,75a7.8,7.8,0,0,0,7.93-7.8V18.07a2.48,2.48,0,0,1,2.48-2.48H38.53a2.59,2.59,0,0,0,1.86-.77L54,1.26A.74.74,0,0,0,53.44,0Z" fill="#2a7aa7"/></g></g></svg>